<svg width="191" height="48" viewBox="0 0 191 48" fill="none" xmlns="http://www.w3.org/2000/svg">
<path fill-rule="evenodd" clip-rule="evenodd" d="M29.0122 0.138158C29.012 0.214105 29.1374 0.524999 29.2907 0.828945C29.6177 1.47679 29.7713 2.36865 29.692 3.15789C29.6442 3.63299 26.8404 20.9783 26.7472 21.3749L26.7054 21.5526L22.5953 21.5538C20.3348 21.5545 18.4448 21.5811 18.3953 21.613C18.3458 21.6449 17.162 23.9436 15.7644 26.7214C13.9684 30.2912 13.2098 31.7261 13.1769 31.6161C13.1512 31.5305 12.7527 29.3111 12.2914 26.6841C11.8301 24.0572 11.4179 21.8279 11.3754 21.7302L11.2982 21.5526H6.80744H2.31674V21.7572C2.31674 21.8698 2.38832 22.0523 2.4758 22.1628C2.56336 22.2734 2.70978 22.5987 2.80123 22.8858C3.1428 23.9582 3.12071 24.1489 1.53191 33.8683C0.740571 38.7098 0.0720622 42.7687 0.0464787 42.888L0 43.1052H2.08068H4.16137L4.10679 42.888C4.07683 42.7686 4.00056 42.6139 3.93732 42.5441C3.87407 42.4744 3.74782 42.2079 3.65677 41.952C3.51781 41.5616 3.49723 41.3598 3.5287 40.6973C3.56556 39.9202 5.22912 29.0673 5.32844 28.9559C5.35649 28.9245 5.97152 32.0863 6.69517 35.9822L8.01097 43.0657L9.51381 43.0856L11.0167 43.1054L14.4729 36.0335C16.3738 32.1439 17.9492 28.9484 17.9739 28.9325C18.0393 28.8902 16.5188 39.3842 16.2636 40.7367C15.8991 42.6687 15.8738 42.8367 15.9264 42.9731C15.9732 43.0942 16.3199 43.1052 20.1115 43.1052H24.2455V42.9113C24.2455 42.8047 24.1597 42.5919 24.0549 42.4385C23.7617 42.0091 23.6615 41.4553 23.7126 40.5472C23.7376 40.1033 24.4113 35.7576 25.233 30.7414C26.0445 25.7868 26.7085 21.6923 26.7085 21.6427C26.7085 21.5774 27.2786 21.5526 28.7742 21.5526C30.3737 21.5526 30.84 21.5303 30.8403 21.4539C30.8405 21.3997 30.7064 21.0919 30.5423 20.7701C30.0585 19.8209 30.0804 19.5186 31.1072 12.9868C31.5781 9.99076 31.9878 7.47677 32.0175 7.40027C32.0475 7.32298 32.6521 10.397 33.3762 14.3081C34.0939 18.184 34.6965 21.3997 34.7155 21.4539C34.7415 21.5281 35.118 21.5526 36.2326 21.5526H37.7152L41.1616 14.5065C43.0573 10.6313 44.6394 7.42609 44.6776 7.38401C44.718 7.33956 44.7288 7.40556 44.7034 7.5419C44.6794 7.67082 44.3224 10.121 43.91 12.9868C43.4978 15.8526 43.0284 18.8942 42.867 19.7459C42.7056 20.5976 42.5961 21.3525 42.6235 21.4235C42.6687 21.5407 43.0576 21.5526 46.847 21.5526C50.8672 21.5526 51.0207 21.5471 51.0207 21.4053C51.0207 21.3243 50.9464 21.1642 50.8556 21.0495C50.7648 20.9348 50.6177 20.6369 50.5288 20.3876C50.3915 20.0028 50.3734 19.8086 50.4089 19.1052C50.435 18.5892 51.0083 14.8719 51.9275 9.25845C52.7398 4.29859 53.4043 0.186472 53.4043 0.120314C53.4043 0.0140516 52.9233 0.000159051 49.2927 0.00118536C47.0313 0.00189589 45.1406 0.0285011 45.0912 0.0603957C45.0417 0.0922904 43.8565 2.3921 42.4574 5.17104C40.4203 9.21716 39.9041 10.1843 39.8666 10.0263C39.8408 9.91774 39.4394 7.66182 38.9746 5.01314C38.5098 2.36447 38.0938 0.153 38.0503 0.098684C37.9886 0.0218684 36.9802 0 33.4919 0C29.279 0 29.0126 0.00821051 29.0122 0.138158ZM62.2385 3.67436C60.4188 3.98967 58.598 4.9488 57.2203 6.31775C55.0333 8.49085 53.7612 11.9205 54.0436 14.8824C54.3621 18.2223 56.6722 21.0876 59.6111 21.7876C60.8804 22.09 62.9442 21.9665 64.3333 21.5051C66.926 20.6439 69.1349 18.7256 70.4292 16.2114C71.9422 13.2722 72.0751 10.2533 70.8038 7.69735C69.8534 5.78627 68.1538 4.36688 66.1166 3.78299C65.3368 3.55949 63.2403 3.50075 62.2385 3.67436ZM80.4576 3.87007C78.7605 4.35907 76.0717 4.81578 74.8902 4.81578C74.3443 4.81578 74.2899 4.83062 74.2116 5.00138C74.1404 5.15683 74.1691 5.26206 74.3891 5.64938C74.875 6.50493 74.8707 6.55238 73.5903 14.3177C72.9757 18.0457 72.4727 21.1809 72.4727 21.2848V21.4736H76.0083C80.0061 21.4736 79.7179 21.5283 79.3652 20.8372C79.2052 20.5237 79.1874 20.3785 79.1952 19.4605C79.2031 18.5373 79.293 17.9159 80.089 13.2788C80.5758 10.4434 80.9741 8.09501 80.9741 8.06019C80.9741 7.95093 82.0303 7.51309 82.4042 7.46746C82.9537 7.40035 83.2846 7.5528 83.4967 7.97066C83.595 8.1644 83.6754 8.41308 83.6752 8.52329C83.6751 8.6335 83.1756 11.562 82.5653 15.0311C81.9549 18.5002 81.4745 21.3689 81.4976 21.406C81.5207 21.4432 83.1285 21.4736 85.0705 21.4736H88.6015V21.2863C88.6015 21.1833 88.5298 20.938 88.4422 20.7412C88.084 19.9365 88.1029 19.7489 89.1972 13.2631C90.3269 6.56722 90.3257 6.58175 89.8922 5.66122C89.5516 4.93807 89.0984 4.47859 88.3757 4.1238L87.7751 3.82894L86.6589 3.83478C85.6586 3.83991 85.4765 3.86304 84.907 4.05686C84.1282 4.32188 83.0177 4.83883 82.0723 5.37638C81.6817 5.59854 81.3455 5.76385 81.3253 5.74372C81.3051 5.72359 81.3607 5.33785 81.4489 4.88643C81.6424 3.89628 81.6468 3.74154 81.484 3.67949C81.3193 3.61673 81.3697 3.60733 80.4576 3.87007ZM115.262 3.79499C112.508 4.0372 110.598 4.90238 109.931 6.20991C109.721 6.62114 109.696 6.74935 109.696 7.39451C109.696 8.07108 109.711 8.13969 109.934 8.45374C110.089 8.67171 110.354 8.88866 110.689 9.07237C111.185 9.34395 111.237 9.35524 112.002 9.35524C112.736 9.35524 112.838 9.33574 113.313 9.1034C113.971 8.78161 114.503 8.33358 114.503 8.10164C114.503 7.96656 114.414 7.88872 114.117 7.76429C113.466 7.4909 113.431 6.90361 114.038 6.45527C114.386 6.1983 114.731 6.08833 115.375 6.0288C116.91 5.88709 117.816 6.64467 117.903 8.14151C117.938 8.73969 117.658 10.8399 117.523 10.9956C117.494 11.0295 117.24 11.0022 116.96 10.935C116.254 10.7661 114.465 10.6975 113.586 10.8057C110.906 11.1351 108.77 12.4876 107.788 14.4763C107.332 15.4001 107.195 15.9386 107.141 17.0131C107.038 19.0663 107.87 20.6744 109.418 21.4173C110.921 22.1386 112.711 21.9613 114.88 20.8762L116.012 20.3099V20.6199C116.012 20.7905 116.052 21.0879 116.101 21.2808L116.19 21.6315H119.35H122.51L122.558 21.4428C122.587 21.3272 122.538 21.105 122.431 20.8704C122.294 20.5695 122.249 20.2972 122.225 19.6079C122.195 18.7824 122.245 18.4194 123.047 13.6474C123.892 8.62277 123.9 8.55866 123.812 7.93419C123.602 6.45906 122.644 5.25725 121.08 4.50923C120.199 4.08796 119.612 3.92131 118.557 3.79262C117.8 3.70025 116.327 3.70136 115.262 3.79499ZM94.1438 4.22517C93.9818 4.3346 93.8141 4.48941 93.7711 4.56923C93.6548 4.78491 93.1935 7.48901 93.2558 7.58911C93.3436 7.73035 93.7737 7.61264 94.279 7.30909C94.5394 7.15261 94.879 6.98398 95.0338 6.93432C95.3658 6.82774 99.4072 6.74225 99.4065 6.8418C99.4063 6.87811 97.441 9.54755 95.0392 12.7738C92.2898 16.4672 90.6422 18.7479 90.5908 18.9317C90.5459 19.0923 90.509 19.5896 90.5088 20.0368C90.5083 20.8977 90.606 21.2354 90.9012 21.3923C91.0027 21.4463 93.3996 21.4736 98.0372 21.4736H105.02L105.183 21.296C105.319 21.1466 105.373 20.8704 105.518 19.5569C105.613 18.6981 105.669 17.961 105.642 17.9188C105.553 17.7753 105.327 17.8442 104.744 18.1925C103.925 18.682 103.578 18.7257 100.748 18.6959L98.3942 18.671L102.959 12.4737C105.469 9.06511 107.61 6.09867 107.715 5.88156C107.966 5.3647 107.994 4.36451 107.763 4.15696C107.63 4.03759 107.048 4.02631 101.028 4.02631H94.4383L94.1438 4.22517ZM64.6351 5.86743C65.1923 6.28972 65.4067 7.42648 65.2482 9.1184C65.0182 11.5719 64.2957 15.6653 63.8058 17.2894C63.6683 17.7453 63.4464 18.3416 63.3126 18.6146C62.5444 20.182 60.9465 20.2942 60.5274 18.81C60.3575 18.2085 60.3527 16.605 60.517 15.3395C60.9947 11.6592 61.718 8.3035 62.33 6.92856C62.5409 6.45496 62.9363 5.97062 63.296 5.74562C63.6394 5.53072 64.2661 5.58772 64.6351 5.86743ZM117.113 13.1461C117.158 13.1937 117.037 14.1245 116.801 15.5526L116.417 17.8815L116.155 18.1019C115.465 18.6832 114.463 18.9307 113.947 18.6477C113.468 18.3851 113.35 18.0843 113.354 17.1315C113.36 15.8457 113.757 14.7314 114.487 13.9562C115.194 13.2053 115.609 13.0144 116.467 13.0469C116.782 13.0588 117.073 13.1035 117.113 13.1461ZM55.2714 22.3079C54.0494 22.6243 52.9757 22.8335 51.4628 23.0499C50.8538 23.137 50.3288 23.2354 50.2961 23.2686C50.2634 23.3017 50.1437 23.8618 50.0301 24.5131C49.9166 25.1644 49.8041 25.795 49.7803 25.9144L49.7369 26.1315H48.7598C48.0714 26.1315 47.7603 26.1606 47.707 26.2302C47.6429 26.3138 47.3659 27.9495 47.3659 28.2446C47.3659 28.3168 47.6261 28.342 48.3677 28.342C49.3665 28.342 49.3693 28.3426 49.3259 28.5197C49.3019 28.6173 48.8658 31.1308 48.3569 34.1052C47.4731 39.269 47.4328 39.554 47.4625 40.4209C47.4889 41.1916 47.5249 41.3965 47.7008 41.7769C48.1279 42.7007 48.9188 43.2792 50.1171 43.5441C50.5849 43.6475 50.981 43.6688 51.9213 43.641C53.0101 43.6087 53.1967 43.5814 53.858 43.3577C54.9743 42.9802 56.3114 42.2725 56.8406 41.7793L57.0591 41.5756V40.4457C57.0591 39.8242 57.0271 39.3157 56.9879 39.3157C56.9487 39.3157 56.6369 39.4478 56.2948 39.6091C55.6195 39.9278 54.9044 40.0335 54.4925 39.8754C54.1877 39.7586 53.9442 39.1976 53.9456 38.6154C53.9465 38.2683 55.4088 29.2914 55.5902 28.5197C55.6313 28.3446 55.6505 28.342 56.8964 28.342C58.0312 28.342 58.165 28.3279 58.2035 28.2039C58.2741 27.9757 58.4886 26.582 58.4889 26.3486L58.4892 26.1315H57.3107C56.6624 26.1315 56.1146 26.1141 56.0932 26.0927C56.0717 26.0714 56.2091 25.1922 56.3985 24.1388C56.5879 23.0855 56.7258 22.1793 56.7048 22.1249C56.6494 21.9811 56.4221 22.0101 55.2714 22.3079ZM171.748 22.3079C170.526 22.6243 169.452 22.8335 167.939 23.0499C167.33 23.137 166.806 23.2354 166.773 23.2686C166.741 23.3017 166.622 23.8618 166.508 24.5131C166.394 25.1644 166.282 25.795 166.257 25.9144L166.213 26.1315H165.225C164.275 26.1315 164.233 26.1385 164.161 26.3091C164.098 26.4587 163.842 28.027 163.842 28.2655C163.842 28.3109 164.249 28.342 164.842 28.342H165.841L165.795 28.5591C165.769 28.6786 165.334 31.192 164.829 34.1446C163.952 39.264 163.91 39.5552 163.939 40.4209C163.965 41.1925 164.001 41.3961 164.177 41.7769C164.604 42.7007 165.395 43.2792 166.594 43.5441C167.061 43.6475 167.457 43.6688 168.398 43.641C169.486 43.6088 169.673 43.5814 170.334 43.3579C171.486 42.9683 172.746 42.3001 173.317 41.7762L173.536 41.5756V40.4457C173.536 39.8242 173.503 39.3157 173.464 39.3157C173.425 39.3157 173.113 39.4478 172.771 39.6091C172.096 39.9276 171.381 40.0335 170.97 39.8757C170.654 39.7546 170.441 39.2478 170.439 38.6112C170.437 38.224 171.849 29.4811 172.068 28.5197C172.108 28.3446 172.127 28.342 173.37 28.342C174.462 28.342 174.638 28.3248 174.681 28.2133C174.745 28.047 174.966 26.5876 174.966 26.3294V26.1315H173.774C172.61 26.1315 172.582 26.1276 172.582 25.9628C172.582 25.87 172.727 24.9813 172.904 23.9878C173.081 22.9943 173.204 22.1466 173.177 22.1039C173.103 21.9847 172.867 22.0184 171.748 22.3079ZM117.045 25.3886C115.505 25.8007 112.725 26.2894 111.921 26.2894C111.161 26.2894 110.972 26.5074 111.316 26.9878C111.511 27.2602 111.722 27.973 111.722 28.3592C111.722 28.5265 111.526 29.8612 111.288 31.3251C111.049 32.789 110.528 35.9762 110.131 38.4078C109.734 40.8394 109.341 43.3084 109.256 43.8946C109.083 45.1046 108.895 47.6888 108.968 47.8759C109.01 47.986 109.404 47.9999 112.474 47.9999C116.274 47.9999 116.127 48.0202 115.783 47.5383C115.282 46.8361 115.216 45.6539 115.568 43.6973C115.693 43.0025 115.808 42.4197 115.823 42.402C115.839 42.3844 116.204 42.5348 116.635 42.7362C117.712 43.2396 118.262 43.3725 119.27 43.3727C120.804 43.3731 122.333 42.8224 123.605 41.8114C124.835 40.8337 126.042 39.1516 126.671 37.5395C127.007 36.6773 127.409 35.0537 127.574 33.8919C127.746 32.6772 127.708 30.5823 127.498 29.6841C127.324 28.9402 126.715 27.6596 126.242 27.0394C125.344 25.8645 124.006 25.1841 122.592 25.1841C121.529 25.1841 120.412 25.6019 119.124 26.4812C118.76 26.73 118.442 26.9146 118.419 26.8915C118.396 26.8685 118.422 26.4964 118.478 26.0648C118.573 25.3185 118.556 25.0191 118.418 25.0321C118.384 25.0352 117.766 25.1957 117.045 25.3886ZM36.6797 25.2339C33.885 25.5341 31.2652 27.1281 29.6899 29.4868C27.7479 32.3943 27.2027 36.0207 28.2885 38.8087C29.1816 41.102 31.0425 42.8513 33.2132 43.4382C34.02 43.6564 35.8711 43.6732 36.9031 43.4718C38.8109 43.0993 40.7772 42.025 42.2016 40.5768C43.6193 39.1355 44.6039 37.355 45.1237 35.2929C45.309 34.5579 45.3337 34.3033 45.3351 33.1183C45.3363 31.9871 45.3086 31.6663 45.1589 31.0771C44.7907 29.627 44.1743 28.4953 43.2081 27.4953C42.218 26.4706 41.0107 25.7557 39.6988 25.4175C39.0685 25.255 37.4175 25.1546 36.6797 25.2339ZM68.4604 25.2339C65.8395 25.5154 63.3988 26.9077 61.7836 29.0424C60.7997 30.3428 59.9375 32.3387 59.6475 33.9868C59.4736 34.9758 59.485 36.5623 59.6726 37.4604C60.2821 40.3797 62.3742 42.73 64.9939 43.4382C65.8008 43.6564 67.6518 43.6732 68.6838 43.4718C70.5945 43.0988 72.5173 42.0487 73.9624 40.5892C75.399 39.1383 76.3818 37.3687 76.9041 35.2929C77.0914 34.5484 77.1132 34.3145 77.1105 33.0789C77.1078 31.8492 77.085 31.6138 76.9028 30.9379C76.5072 29.4702 75.8264 28.2955 74.7929 27.2973C73.8364 26.3736 72.7105 25.7349 71.4796 25.4175C70.8493 25.255 69.1982 25.1546 68.4604 25.2339ZM137.981 25.2677C136.647 25.4464 135.132 26.0353 133.926 26.8439C131.742 28.3084 130.12 30.8639 129.517 33.7894C129.288 34.9025 129.327 36.95 129.596 37.9341C130.07 39.6648 131.252 41.4176 132.578 42.3549C134.062 43.4037 135.673 43.7966 137.628 43.5866C142.122 43.1039 145.799 39.6515 146.808 34.9694C147.007 34.0411 147.01 32.1806 146.813 31.2631C146.2 28.4132 144.042 26.1247 141.294 25.4116C140.579 25.226 138.852 25.151 137.981 25.2677ZM100.322 25.3511C97.7998 25.7161 95.9022 26.9816 94.9586 28.9281C94.4823 29.9106 94.311 30.6527 94.3105 31.7368C94.31 32.7091 94.4034 33.1794 94.7268 33.8322C95.5216 35.4363 97.015 36.4085 100.063 37.3062C101.681 37.7827 102.528 38.2777 102.879 38.952C103.259 39.6811 102.717 40.6358 101.661 41.1001C100.789 41.483 99.3868 41.5453 98.4646 41.2419C97.8586 41.0426 97.3425 40.558 97.2867 40.1359C97.2326 39.7272 97.416 39.3201 97.7397 39.1302C98.087 38.9263 98.0434 38.7177 97.5554 38.248C96.0789 36.827 93.8258 37.0204 92.9913 38.6397C92.7168 39.1722 92.6547 40.1106 92.8493 40.7834C93.2895 42.3053 94.8801 43.4106 97.1692 43.7854C98.2378 43.9604 100.478 43.9599 101.472 43.7844C103.366 43.45 104.86 42.7463 105.989 41.6569C107.252 40.438 107.831 39.0622 107.827 37.2861C107.826 36.2739 107.667 35.5565 107.267 34.7499C106.481 33.1665 104.969 32.2223 101.744 31.3026C101.048 31.1042 100.26 30.8363 99.9915 30.707C97.992 29.7443 98.7738 27.8971 101.279 27.6658C103.002 27.5068 104.402 28.5729 103.521 29.3728C103.38 29.5006 103.237 29.6052 103.203 29.6052C103.169 29.6052 103.141 29.6731 103.141 29.7561C103.141 30.0597 103.96 30.5537 104.923 30.831C106.124 31.1769 107.398 30.6973 107.863 29.7243C108.09 29.2481 108.013 28.1981 107.71 27.645C107.082 26.4998 105.588 25.6774 103.608 25.387C102.709 25.2551 101.107 25.2376 100.322 25.3511ZM183.128 25.3825C179.692 25.9565 177.51 28.2011 177.296 31.3815C177.202 32.7913 177.617 34.0108 178.523 34.983C179.394 35.9176 180.416 36.4546 182.786 37.2215C183.619 37.4914 184.49 37.8077 184.721 37.9246C185.518 38.3276 186.009 38.9168 186.009 39.4689C186.009 40.0384 185.464 40.6992 184.696 41.0622C184.052 41.366 183.413 41.4738 182.553 41.4237C181.327 41.3524 180.489 40.908 180.3 40.2284C180.187 39.8206 180.4 39.3061 180.759 39.1219C181.099 38.9468 181.069 38.7602 180.627 38.3136C179.657 37.3344 178.132 37.0211 177.037 37.5761C176.018 38.0928 175.507 39.3001 175.792 40.5203C176.078 41.7432 176.704 42.4722 178.009 43.1037C179.001 43.5837 179.836 43.7864 181.262 43.8935C186.08 44.2553 189.748 42.2861 190.67 38.842C190.86 38.1359 190.86 36.4695 190.671 35.7688C190.183 33.9571 188.835 32.7052 186.419 31.8203C186.085 31.6977 185.292 31.4531 184.659 31.2767C183.281 30.8931 182.986 30.7765 182.503 30.4253C182.034 30.0843 181.848 29.7091 181.897 29.2026C181.947 28.6845 182.234 28.3315 182.852 28.031C184.15 27.3988 186.068 27.5953 186.625 28.4176C186.9 28.8226 186.859 29.0297 186.427 29.4306L186.049 29.7803L186.39 30.0816C186.578 30.2473 187.007 30.4997 187.344 30.6425C187.892 30.8749 188.035 30.9021 188.711 30.9027C189.376 30.9032 189.514 30.878 189.874 30.6916C190.371 30.4338 190.828 29.9218 190.946 29.4909C191.068 29.0411 190.976 28.2466 190.741 27.7375C190.198 26.5587 188.449 25.6041 186.367 25.3506C185.436 25.2373 183.907 25.2523 183.128 25.3825ZM85.7015 25.5726C84.694 25.8888 81.9528 26.3698 80.7954 26.4333C79.8645 26.4845 79.8209 26.4945 79.7966 26.6649C79.7825 26.7628 79.864 27.0316 79.9774 27.262C80.4244 28.17 80.4241 28.1759 79.6673 32.6052C78.2694 40.7864 77.9249 42.9136 77.9764 43.047C78.0256 43.1742 78.2761 43.1841 81.4444 43.1841C84.5917 43.1841 84.8653 43.1734 84.9358 43.0483C84.992 42.9484 84.9608 42.8252 84.8177 42.5825C84.5437 42.1179 84.456 41.4774 84.5516 40.6392C84.595 40.2577 84.9847 38.0088 85.4174 35.6415C86.1613 31.5725 86.2181 31.316 86.4578 30.9448C87.0263 30.0647 87.9845 29.4473 88.7821 29.4473C89.1898 29.4473 89.2782 29.4759 89.4757 29.6723C89.7725 29.9672 89.8634 30.4259 89.686 30.7331C89.5222 31.0166 89.5193 31.2144 89.677 31.3445C89.8331 31.4732 90.5502 31.2877 91.21 30.9481C91.7718 30.6589 91.9262 30.5306 92.2858 30.054C92.7186 29.4804 92.9227 28.7222 92.8713 27.8791C92.8064 26.8164 92.425 26.1392 91.6296 25.6746C91.2911 25.4768 91.1965 25.4605 90.3891 25.4605C89.5794 25.4605 89.483 25.4772 89.0782 25.6885C88.4287 26.0273 87.5199 26.9787 86.975 27.8902C86.7212 28.3148 86.5041 28.6523 86.4924 28.6402C86.4808 28.6282 86.524 28.1387 86.5885 27.5526C86.6529 26.9664 86.7121 26.2381 86.72 25.9341C86.7375 25.2582 86.7215 25.2525 85.7015 25.5726ZM155.579 25.5522C154.432 25.9334 151.396 26.4473 150.291 26.4473C149.743 26.4473 149.69 26.4618 149.611 26.6343C149.54 26.7897 149.559 26.8732 149.728 27.1277C149.84 27.2963 149.986 27.6651 150.052 27.9473C150.2 28.5784 150.278 28.0339 148.837 36.4736C148.103 40.7752 147.762 42.9539 147.809 43.0468C147.874 43.1768 148.102 43.1844 151.311 43.1652C155.233 43.1417 154.962 43.204 154.572 42.4144C154.191 41.6425 154.235 41.1687 155.172 35.9999C155.748 32.8209 156.03 31.4373 156.155 31.1841C156.395 30.6976 157.197 29.9171 157.72 29.6598C158.042 29.5019 158.273 29.4473 158.62 29.4473C159.028 29.4473 159.116 29.4759 159.314 29.6723C159.611 29.9672 159.702 30.4259 159.524 30.7331C159.36 31.0166 159.357 31.2144 159.515 31.3445C159.615 31.4267 159.726 31.4208 160.118 31.3126C161.266 30.9952 161.979 30.4322 162.428 29.4868C162.673 28.9708 162.69 28.8791 162.69 28.1052C162.69 27.3621 162.667 27.2271 162.467 26.8026C162.205 26.2461 161.949 25.9588 161.459 25.6705C161.13 25.4774 161.031 25.4605 160.227 25.4605C159.384 25.4605 159.336 25.4699 158.856 25.7285C158.203 26.0805 157.392 26.9345 156.801 27.8935C156.546 28.308 156.329 28.6393 156.319 28.6298C156.31 28.6202 156.358 28.0986 156.426 27.4706C156.495 26.8427 156.556 26.1157 156.562 25.8552C156.572 25.4031 156.563 25.3809 156.374 25.3679C156.265 25.3604 155.907 25.4433 155.579 25.5522ZM38.1255 27.4022C39.0855 27.8639 39.2283 29.2134 38.7051 32.8774C38.0797 37.2578 37.4392 39.8158 36.7212 40.8006C36.2971 41.3824 35.6114 41.6441 35.0196 41.45C34.0188 41.1218 33.8539 39.3893 34.4517 35.4868C35.2608 30.2049 36.0162 27.8621 37.062 27.3903C37.491 27.1967 37.7033 27.1992 38.1255 27.4022ZM69.8023 27.3464C70.171 27.4995 70.4621 27.8374 70.6254 28.3017C70.8667 28.9878 70.8044 30.7506 70.4553 33.1142C69.7226 38.0748 69.0181 40.5106 68.1208 41.1854C67.3086 41.7963 66.3603 41.5338 66.0458 40.6111C65.8956 40.1703 65.8438 38.4448 65.9521 37.487C66.247 34.8789 66.9376 31.2439 67.4354 29.6804C67.8856 28.2666 68.266 27.6507 68.8529 27.3858C69.2418 27.2103 69.4533 27.2016 69.8023 27.3464ZM139.585 27.3205C139.942 27.4544 140.31 27.8636 140.462 28.2966C140.663 28.8703 140.641 30.6047 140.412 32.2499C139.852 36.2536 139.213 39.1507 138.635 40.3025C138.214 41.1406 137.594 41.579 136.933 41.5051C136.464 41.4526 136.199 41.2538 135.956 40.7721C135.482 39.8325 135.731 36.6765 136.629 32.2499C137.256 29.1576 137.846 27.7674 138.693 27.3852C139.063 27.2181 139.271 27.203 139.585 27.3205ZM120.336 28.8994C120.496 29.0392 120.689 29.3303 120.794 29.5902C120.962 30.0048 120.976 30.1547 120.972 31.5394C120.968 33.2509 120.805 34.3944 120.189 37.0589C119.707 39.1443 119.43 39.7926 118.758 40.4082C118.364 40.7689 118 40.8935 117.338 40.8942C116.799 40.8947 116.092 40.6325 116.092 40.4322C116.092 40.3622 116.521 37.8319 117.045 34.8092C117.57 31.7865 117.999 29.2888 117.999 29.2588C117.999 29.2288 118.257 29.0813 118.572 28.9311C119.358 28.557 119.931 28.5467 120.336 28.8994Z" fill="#F8F8F8"/>
</svg>
