<?xml version="1.0" encoding="utf-8"?>
<!-- Generator: Adobe Illustrator 23.0.2, SVG Export Plug-In . SVG Version: 6.00 Build 0)  -->
<svg version="1.1" id="Слой_1" xmlns="http://www.w3.org/2000/svg" xmlns:xlink="http://www.w3.org/1999/xlink" x="0px" y="0px"
	 viewBox="0 0 30 30" style="enable-background:new 0 0 30 30;" xml:space="preserve">
<style type="text/css">
	.st0{fill:#1B4693;}
</style>
<g>
	<path class="st0" d="M21,0H9C4,0,0,4,0,9v7c0,4.8,4,8.7,9,9v4.2C9,29.6,9.4,30,9.8,30c0.2,0,0.4-0.1,0.6-0.2l0.8-0.8
		c2.5-2.5,5.8-3.9,9.3-3.9H21c5,0,9-4,9-9V9C30,4,26,0,21,0z M8.5,14.5c-1.1,0-2-0.9-2-2s0.9-2,2-2s2,0.9,2,2S9.6,14.5,8.5,14.5z
		 M15,14.5c-1.1,0-2-0.9-2-2s0.9-2,2-2c1.1,0,2,0.9,2,2S16.1,14.5,15,14.5z M21.5,14.5c-1.1,0-2-0.9-2-2s0.9-2,2-2c1.1,0,2,0.9,2,2
		S22.6,14.5,21.5,14.5z"/>
	<g>
	</g>
	<g>
	</g>
	<g>
	</g>
	<g>
	</g>
	<g>
	</g>
	<g>
	</g>
	<g>
	</g>
	<g>
	</g>
	<g>
	</g>
	<g>
	</g>
	<g>
	</g>
	<g>
	</g>
	<g>
	</g>
	<g>
	</g>
	<g>
	</g>
</g>
</svg>
