<?xml version="1.0" encoding="utf-8"?>
<!-- Generator: Adobe Illustrator 23.0.4, SVG Export Plug-In . SVG Version: 6.00 Build 0)  -->
<svg version="1.1" id="Layer_1" xmlns="http://www.w3.org/2000/svg" xmlns:xlink="http://www.w3.org/1999/xlink" x="0px" y="0px"
	 viewBox="0 0 14 14" style="enable-background:new 0 0 14 14;" xml:space="preserve">
<path d="M13.8,2.7H9.7L9.1,0.4C9.1,0.2,8.8,0,8.5,0h-3C5.2,0,4.9,0.2,4.9,0.4L4.3,2.7H0.2C0.1,2.7,0,2.8,0,2.9v1
	C0,4,0.1,4.1,0.2,4.1h1.4L3,13c0.1,0.6,0.7,1,1.3,1h5.4c0.7,0,1.2-0.4,1.3-1l1.4-8.9h1.4C13.9,4.1,14,4,14,3.9v-1
	C14,2.8,13.9,2.7,13.8,2.7z M9.7,12.6L9.7,12.6H4.3h0L3,4.1h8L9.7,12.6z M5.9,1.2h2.2l0.3,1.4H5.6L5.9,1.2z"/>
</svg>
