<?xml version="1.0" standalone="no"?>
<!DOCTYPE svg PUBLIC "-//W3C//DTD SVG 20010904//EN"
 "http://www.w3.org/TR/2001/REC-SVG-20010904/DTD/svg10.dtd">
<svg version="1.0" xmlns="http://www.w3.org/2000/svg"
 width="864.000000pt" height="864.000000pt" viewBox="0 0 864.000000 864.000000"
 preserveAspectRatio="xMidYMid meet">
<metadata>
Created by potrace 1.14, written by Peter Selinger 2001-2017
</metadata>
<g transform="translate(0.000000,864.000000) scale(0.100000,-0.100000)"
fill="#000000" stroke="none">
<path d="M4675 7833 c-37 -9 -37 -20 0 -99 41 -88 39 -84 60 -174 14 -62 20
-190 11 -255 -2 -16 -7 -50 -10 -74 -3 -23 -8 -55 -11 -70 -7 -42 -22 -134
-29 -178 -4 -25 -40 -248 -52 -328 -3 -16 -7 -37 -9 -45 -3 -8 -7 -35 -10 -60
-3 -25 -7 -56 -9 -70 -3 -14 -13 -81 -25 -150 -11 -69 -22 -143 -26 -165 -3
-23 -7 -50 -9 -62 -9 -44 -18 -99 -21 -123 -1 -14 -5 -38 -9 -55 -3 -16 -8
-46 -10 -65 -3 -19 -12 -75 -21 -125 -8 -49 -18 -106 -21 -125 -3 -19 -7 -44
-8 -55 -2 -11 -7 -42 -11 -70 -3 -27 -8 -57 -10 -65 -5 -19 -15 -75 -21 -120
-7 -50 -17 -119 -30 -190 -20 -118 -37 -221 -40 -250 -3 -19 -7 -45 -9 -57
-10 -50 -32 -175 -40 -235 -4 -33 -16 -98 -24 -138 l-7 -35 -284 -2 c-157 -1
-453 -3 -658 -4 -254 -1 -377 -5 -386 -13 -8 -6 -49 -78 -92 -161 -42 -82 -83
-159 -91 -170 -7 -11 -13 -27 -13 -36 0 -10 -4 -19 -8 -21 -4 -1 -59 -104
-121 -228 -105 -208 -351 -692 -418 -820 -15 -30 -30 -57 -33 -60 -3 -3 -16
-27 -30 -53 l-25 -48 -12 39 c-6 22 -14 55 -17 73 -9 56 -16 99 -36 209 -11
58 -22 121 -25 140 -8 51 -17 102 -22 125 -2 11 -6 36 -9 55 -2 19 -7 42 -10
51 -2 9 -7 34 -10 55 -2 22 -6 46 -9 54 -2 8 -7 31 -10 50 -6 36 -20 120 -30
175 -3 17 -8 44 -11 60 -4 17 -7 39 -9 50 -2 18 -9 57 -22 120 -4 21 -19 103
-29 165 -4 19 -7 40 -8 45 -2 6 -9 38 -16 73 -7 34 -17 65 -22 68 -6 4 -1050
8 -1385 4 -67 0 -68 -10 -14 -123 51 -106 63 -154 64 -252 1 -76 -8 -201 -18
-255 -2 -14 -6 -45 -9 -70 -3 -25 -8 -54 -10 -65 -2 -11 -7 -47 -11 -80 -3
-32 -8 -62 -10 -65 -2 -3 -6 -28 -10 -56 -6 -52 -12 -93 -20 -134 -3 -14 -7
-43 -10 -65 -3 -22 -7 -51 -10 -65 -3 -14 -7 -41 -10 -60 -3 -19 -7 -46 -10
-60 -3 -14 -8 -43 -10 -65 -3 -22 -9 -62 -15 -90 -5 -27 -12 -68 -14 -90 -3
-22 -9 -62 -15 -90 -5 -27 -12 -70 -16 -95 -7 -48 -13 -87 -21 -135 -3 -16 -7
-42 -10 -58 -10 -68 -24 -153 -30 -181 -2 -11 -7 -41 -10 -66 -3 -25 -7 -52
-9 -60 -3 -8 -7 -33 -10 -55 -3 -22 -10 -65 -15 -95 -5 -30 -12 -71 -15 -90
-3 -19 -10 -60 -15 -90 -5 -30 -12 -68 -14 -84 -7 -40 -19 -117 -22 -141 -1
-11 -3 -20 -4 -20 -2 0 -7 -24 -13 -75 -4 -25 -9 -58 -12 -75 -3 -16 -7 -43
-10 -60 -3 -16 -7 -41 -10 -55 -3 -14 -8 -45 -11 -70 -3 -25 -7 -52 -9 -60 -4
-14 -10 -48 -21 -115 -2 -16 -7 -41 -10 -55 l-5 -26 331 0 c286 0 330 2 330
15 0 8 -16 45 -35 83 -47 89 -63 157 -60 248 3 74 13 181 20 210 4 15 11 62
20 135 2 22 7 51 10 65 3 14 7 45 10 70 2 25 7 56 9 69 3 13 8 49 12 80 3 31
8 58 9 61 2 3 6 29 10 59 4 30 8 62 10 72 2 9 7 39 11 66 3 26 8 55 9 63 2 8
6 40 10 70 4 30 9 64 11 75 7 35 12 68 24 150 11 79 14 97 27 165 3 19 7 50 7
67 1 18 3 33 6 33 3 0 7 10 8 23 5 49 11 102 12 102 2 0 7 23 14 70 17 107 24
149 31 175 2 8 4 20 5 25 2 9 25 -81 34 -135 3 -14 10 -47 16 -75 5 -27 12
-61 14 -75 7 -40 15 -83 21 -110 7 -30 14 -65 20 -100 3 -14 10 -52 16 -85 6
-33 13 -70 15 -82 5 -31 12 -63 19 -93 6 -28 14 -71 21 -115 2 -16 9 -50 14
-75 9 -45 17 -88 26 -145 2 -16 7 -37 9 -46 3 -9 8 -34 11 -55 2 -22 9 -54 14
-73 5 -19 7 -38 4 -42 -2 -4 0 -10 6 -14 6 -4 8 -10 6 -14 -3 -4 -1 -23 4 -42
5 -19 12 -50 14 -69 3 -20 7 -47 10 -60 3 -14 8 -36 10 -50 4 -24 29 -159 41
-225 3 -16 8 -43 10 -59 2 -15 7 -35 9 -45 6 -18 15 -71 22 -120 2 -18 6 -36
8 -40 3 -3 7 -27 11 -51 11 -71 25 -143 29 -148 3 -2 111 -5 242 -6 l237 -2
139 286 c77 157 185 376 239 487 54 111 99 206 99 212 0 6 5 11 10 11 6 0 10
9 10 20 0 11 4 20 10 20 5 0 9 3 8 8 -1 4 40 93 92 197 52 105 93 193 92 197
-1 5 3 8 8 8 6 0 10 5 10 10 0 15 383 790 390 790 4 0 4 -21 -1 -48 -4 -26
-10 -72 -14 -102 -3 -30 -10 -82 -15 -115 -5 -33 -12 -80 -15 -104 -3 -23 -7
-55 -9 -70 -4 -23 -11 -68 -21 -141 -2 -14 -9 -63 -16 -110 -18 -129 -28 -197
-35 -240 -5 -30 -15 -103 -19 -145 -2 -16 -4 -30 -5 -30 -1 0 -3 -9 -4 -20 -2
-11 -6 -42 -10 -70 -5 -27 -10 -65 -12 -83 -2 -18 -5 -41 -8 -50 -3 -9 -8 -44
-11 -77 -4 -33 -11 -78 -15 -100 -5 -22 -14 -76 -20 -120 -10 -79 -14 -100
-25 -160 -3 -16 -8 -46 -11 -65 -2 -19 -9 -58 -15 -86 -21 -109 -23 -119 -34
-194 -4 -25 -8 -55 -10 -67 -8 -47 -14 -47 681 -48 l654 -2 0 21 c0 11 -16 53
-35 93 -20 39 -40 95 -44 125 -9 53 -7 196 2 253 3 17 8 50 12 75 4 25 9 59
11 75 3 17 7 46 9 65 2 19 4 35 5 35 1 0 3 15 6 34 2 19 7 46 10 60 3 14 7 43
9 63 2 21 6 51 10 68 4 18 8 41 10 53 4 36 26 180 31 207 3 14 7 41 10 60 2
19 9 61 15 93 5 32 12 74 15 95 2 20 8 60 14 87 8 44 13 77 25 160 2 11 6 34
9 50 2 17 17 102 31 190 14 88 28 174 32 190 3 17 7 44 8 60 1 17 7 55 13 85
7 30 14 71 16 90 3 19 11 76 20 125 9 50 18 108 21 130 3 22 8 51 11 65 2 14
6 36 9 49 2 12 7 43 9 67 3 24 8 54 11 66 7 32 15 77 20 113 4 27 13 85 20
125 1 8 6 37 9 63 4 27 10 59 12 70 3 12 6 36 8 52 10 81 19 120 28 126 11 7
74 8 452 12 145 2 190 5 194 15 2 7 -10 41 -26 76 -52 108 -63 154 -62 246 0
47 2 101 5 120 2 19 6 55 9 80 7 62 17 139 22 175 3 17 7 46 10 65 2 19 9 64
15 100 6 36 13 79 15 95 1 17 5 41 8 55 2 14 7 43 10 65 7 48 15 101 22 135 3
14 7 43 9 65 3 22 7 51 10 65 6 33 13 78 21 131 13 93 31 194 34 194 1 0 3 18
4 40 2 22 6 54 9 70 4 17 9 44 11 60 3 17 7 44 10 60 3 17 8 49 10 72 3 23 10
61 15 85 6 24 13 66 16 93 7 58 15 88 21 82 5 -4 39 -162 48 -222 4 -22 8 -47
11 -55 4 -15 12 -52 22 -105 3 -16 11 -61 19 -100 8 -38 16 -79 18 -90 11 -61
18 -96 27 -145 6 -30 12 -66 15 -80 2 -14 7 -36 10 -50 3 -13 7 -39 10 -57 2
-18 8 -52 13 -75 6 -23 8 -46 5 -50 -3 -4 0 -8 6 -8 6 0 9 -3 7 -7 -3 -5 1
-37 9 -73 7 -36 16 -85 19 -110 4 -25 9 -54 13 -65 7 -23 7 -27 16 -75 3 -19
8 -46 11 -60 3 -14 7 -41 10 -60 2 -19 9 -60 15 -90 6 -30 13 -66 16 -80 3
-14 12 -61 20 -105 9 -44 18 -93 21 -110 2 -16 11 -64 20 -105 8 -41 15 -82
17 -90 15 -108 31 -163 50 -169 11 -4 119 -8 240 -9 l221 -1 63 129 c34 71 62
134 62 139 0 6 4 11 9 11 5 0 13 10 16 21 4 12 42 92 83 178 42 86 77 158 77
161 0 3 5 12 10 20 22 34 245 498 244 506 0 4 3 10 8 13 4 3 16 22 25 41 430
881 509 1040 520 1040 5 0 7 -3 4 -8 -2 -4 -7 -28 -10 -52 -4 -25 -9 -56 -11
-70 -2 -14 -7 -45 -10 -70 -4 -25 -8 -56 -10 -70 -6 -39 -15 -106 -20 -140 -2
-17 -6 -43 -9 -58 -3 -15 -8 -49 -12 -77 -3 -27 -8 -61 -10 -75 -2 -14 -6 -45
-10 -70 -3 -25 -6 -52 -8 -60 -3 -16 -15 -97 -21 -145 -10 -76 -23 -150 -25
-150 -1 0 -3 -20 -5 -45 -2 -25 -6 -60 -9 -77 -11 -64 -15 -88 -21 -133 -4
-25 -8 -54 -10 -65 -2 -11 -6 -42 -9 -70 -4 -27 -9 -57 -11 -65 -2 -8 -7 -35
-10 -60 -3 -25 -8 -57 -11 -72 -9 -60 -15 -95 -24 -148 -14 -84 -19 -111 -25
-155 -4 -22 -8 -47 -10 -55 -3 -8 -7 -37 -10 -64 -4 -28 -8 -53 -11 -58 -3 -4
-7 -37 -10 -72 -4 -57 -2 -65 13 -66 78 -6 1270 -6 1291 -1 36 10 38 31 8 76
-62 90 -86 229 -65 365 4 25 10 70 14 100 3 30 8 62 10 70 2 8 7 35 10 60 2
25 7 54 9 66 2 12 7 45 11 74 4 29 9 62 11 74 2 11 7 38 10 61 4 22 8 49 10
60 2 11 6 36 8 55 3 19 8 53 11 75 4 22 8 52 11 68 2 15 6 41 9 57 3 17 7 42
9 58 3 15 12 70 21 122 9 52 18 106 20 120 2 14 13 86 25 160 31 194 31 193
35 220 1 14 6 40 9 58 3 17 8 44 11 60 2 15 6 41 9 57 11 64 52 321 60 370 2
17 9 57 15 90 6 33 13 78 16 100 4 22 8 51 11 65 7 40 23 141 29 185 4 22 9
54 12 70 3 17 7 39 8 50 2 11 8 49 14 85 6 36 13 83 16 105 3 22 8 49 10 61 3
12 7 39 10 60 3 21 8 44 10 51 2 6 -2 16 -8 22 -12 10 -1250 13 -1301 4 -24
-5 -38 -26 -130 -208 -28 -55 -55 -103 -61 -107 -5 -4 -6 -8 -1 -8 5 0 4 -6
-2 -12 -5 -7 -99 -188 -207 -403 -361 -714 -432 -847 -450 -849 -8 -1 -60 264
-81 409 -3 22 -9 56 -14 75 -4 19 -8 42 -8 50 0 8 -3 26 -6 40 -6 25 -21 105
-31 168 -7 43 -14 82 -20 112 -7 33 -23 126 -30 170 -3 19 -10 58 -15 85 -5
28 -12 62 -14 78 -3 15 -7 35 -10 45 -3 9 -8 33 -10 52 -3 19 -8 47 -11 63 -3
15 -7 39 -10 54 -2 15 -10 52 -16 82 -7 31 -12 61 -11 67 7 38 -8 39 -717 40
-377 1 -695 -1 -706 -3z"/>
</g>
</svg>
