<svg width="16" height="16" viewBox="0 0 16 16" fill="none" xmlns="http://www.w3.org/2000/svg">
<path d="M8.00002 0C7.75041 0 7.51101 0.0991596 7.33451 0.275665C7.158 0.45217 7.05884 0.691563 7.05884 0.941179C7.05884 1.1908 7.158 1.43019 7.33451 1.60669C7.51101 1.7832 7.75041 1.88236 8.00002 1.88236C9.20998 1.88236 10.3928 2.24115 11.3988 2.91337C12.4049 3.58559 13.189 4.54104 13.652 5.6589C14.115 6.77675 14.2362 8.00681 14.0001 9.19352C13.7641 10.3802 13.1814 11.4703 12.3259 12.3259C11.4703 13.1814 10.3802 13.7641 9.19352 14.0001C8.00681 14.2362 6.77675 14.115 5.65889 13.652C4.54104 13.189 3.58559 12.4049 2.91337 11.3988C2.24115 10.3928 1.88236 9.20998 1.88236 8.00002C1.88171 7.81663 1.82749 7.63742 1.72637 7.48442C1.62525 7.33141 1.48164 7.21129 1.31317 7.1388C1.14471 7.06632 0.958735 7.04463 0.778111 7.07641C0.597488 7.10819 0.430083 7.19204 0.296472 7.31767C0.203279 7.40529 0.128925 7.51099 0.0779513 7.62831C0.0269777 7.74563 0.000453971 7.87211 0 8.00002V8.02826C0.00558018 9.6093 0.479512 11.1532 1.36195 12.4651C2.24439 13.777 3.49576 14.798 4.95806 15.3992C6.42036 16.0003 8.028 16.1547 9.57799 15.8429C11.128 15.531 12.5508 14.7669 13.6668 13.6469C14.7828 12.527 15.5419 11.1015 15.8483 9.5504C16.1547 7.99932 15.9947 6.39223 15.3883 4.93206C14.782 3.47189 13.7566 2.22412 12.4416 1.34631C11.1267 0.468499 9.58107 9.84741e-06 8.00002 0Z" fill="#EEEEEE"/>
<path d="M5.44011 2.35295C5.55736 2.3533 5.67372 2.33258 5.78364 2.29178C6.00284 2.2086 6.1831 2.0466 6.28914 1.83751C6.39518 1.62841 6.41935 1.38726 6.35694 1.16127C6.29453 0.935284 6.15002 0.740725 5.9517 0.615683C5.75338 0.490641 5.51553 0.444119 5.28471 0.485223C5.0539 0.526327 4.84673 0.652099 4.70377 0.837917C4.56081 1.02374 4.49235 1.25622 4.51179 1.48986C4.53123 1.7235 4.63717 1.94148 4.80887 2.10111C4.98057 2.26075 5.20568 2.35056 5.44011 2.35295Z" fill="#EEEEEE"/>
<path d="M1.12936 6.11763C1.35794 6.21186 1.61442 6.21236 1.84337 6.11902C2.07232 6.02568 2.25534 5.84599 2.35289 5.61881C2.42656 5.44722 2.44753 5.2576 2.41312 5.07407C2.37871 4.89053 2.29049 4.72138 2.15967 4.58813C2.02886 4.45488 1.86136 4.36356 1.67849 4.32577C1.49562 4.28799 1.30565 4.30546 1.13274 4.37595C0.959825 4.44645 0.811789 4.56678 0.707464 4.72165C0.603139 4.87652 0.547239 5.05893 0.546877 5.24566C0.546514 5.43239 0.601705 5.61501 0.705428 5.77028C0.809151 5.92555 0.956718 6.04646 1.12936 6.11763Z" fill="#EEEEEE"/>
<path d="M3.0823 3.87763C3.2363 3.87747 3.38792 3.83952 3.52384 3.76712C3.65976 3.69471 3.77584 3.59006 3.86189 3.46233C3.94794 3.33461 4.00133 3.18773 4.01738 3.03456C4.03344 2.8814 4.01166 2.72663 3.95397 2.58384C3.89627 2.44106 3.80442 2.31461 3.68646 2.21559C3.56851 2.11657 3.42806 2.04801 3.27744 2.01593C3.12681 1.98384 2.97062 1.9892 2.82255 2.03155C2.67448 2.07389 2.53906 2.15192 2.42818 2.2588C2.29274 2.38934 2.19952 2.55747 2.16055 2.7415C2.12159 2.92553 2.13866 3.11701 2.20957 3.29125C2.28048 3.46548 2.40197 3.61447 2.55837 3.71899C2.71477 3.82351 2.8989 3.87876 3.08701 3.87763H3.0823Z" fill="#EEEEEE"/>
<rect x="7.05884" y="3.2941" width="1.88236" height="5.64708" rx="0.941179" fill="#EEEEEE"/>
<rect x="7.05884" y="8.94119" width="1.88236" height="5.64708" rx="0.941179" transform="rotate(-90 7.05884 8.94119)" fill="#EEEEEE"/>
</svg>
