<svg width="13" height="17" viewBox="0 0 13 17" fill="none" xmlns="http://www.w3.org/2000/svg">
<path d="M8.27273 6.5C8.27273 6.85061 8.16876 7.19335 7.97397 7.48488C7.77918 7.7764 7.50232 8.00361 7.17839 8.13779C6.85447 8.27196 6.49803 8.30707 6.15416 8.23867C5.81028 8.17026 5.49441 8.00143 5.24649 7.75351C4.99857 7.50559 4.82974 7.18972 4.76133 6.84584C4.69293 6.50197 4.72804 6.14553 4.86221 5.82161C4.99639 5.49768 5.2236 5.22082 5.51513 5.02603C5.80665 4.83124 6.14939 4.72727 6.5 4.72727C6.97016 4.72727 7.42106 4.91404 7.75351 5.24649C8.08596 5.57894 8.27273 6.02984 8.27273 6.5ZM13 6.5C13 9.96273 7.17364 16.1023 6.92545 16.3623C6.87033 16.4195 6.80425 16.465 6.73114 16.496C6.65804 16.5271 6.57943 16.5431 6.5 16.5431C6.42057 16.5431 6.34196 16.5271 6.26885 16.496C6.19575 16.465 6.12967 16.4195 6.07454 16.3623C5.82636 16.1023 0 9.96273 0 6.5C0 4.77609 0.68482 3.12279 1.90381 1.90381C3.12279 0.68482 4.77609 0 6.5 0C8.22391 0 9.87721 0.68482 11.0962 1.90381C12.3152 3.12279 13 4.77609 13 6.5ZM9.45455 6.5C9.45455 5.91565 9.28126 5.34442 8.95661 4.85854C8.63196 4.37267 8.17053 3.99398 7.63066 3.77036C7.09078 3.54673 6.49672 3.48822 5.9236 3.60223C5.35047 3.71623 4.82402 3.99762 4.41082 4.41082C3.99762 4.82402 3.71623 5.35047 3.60222 5.9236C3.48822 6.49672 3.54673 7.09078 3.77036 7.63066C3.99398 8.17053 4.37267 8.63197 4.85854 8.95662C5.34441 9.28127 5.91565 9.45455 6.5 9.45455C7.28359 9.45455 8.03509 9.14326 8.58918 8.58918C9.14326 8.0351 9.45455 7.28359 9.45455 6.5Z" fill="#EEEEEE"/>
<circle cx="6.5" cy="6.5" r="2" fill="#EEEEEE"/>
</svg>
