<svg width="13" height="16" viewBox="0 0 13 16" fill="none" xmlns="http://www.w3.org/2000/svg">
<path d="M10.6584 5.91158V4.34526C10.6584 1.95368 8.78509 0 6.49193 0C4.19876 0 2.32547 1.95368 2.32547 4.34526V5.91158C1.19503 6.01263 0 6.98947 0 8.20211V13.6926C0 14.9726 1.30807 16 2.5354 16H10.4646C11.6919 16 13 14.9726 13 13.6926V8.20211C13 6.98947 11.7888 6.01263 10.6584 5.91158ZM7.46087 12.9516C7.49317 13.12 7.38012 13.2716 7.21863 13.2716H5.74907C5.58758 13.2716 5.47453 13.12 5.50683 12.9516L5.9913 10.9642C5.58758 10.7789 5.29689 10.3579 5.29689 9.85263C5.29689 9.17895 5.82981 8.62316 6.47578 8.62316C7.12174 8.62316 7.65466 9.17895 7.65466 9.85263C7.65466 10.3411 7.36398 10.7621 6.96025 10.9642L7.46087 12.9516ZM8.54286 5.89474H4.44099V4.36211C4.44099 3.18316 5.36149 2.22316 6.49193 2.22316C7.62236 2.22316 8.54286 3.18316 8.54286 4.36211V5.89474Z" fill="#EEEEEE"/>
</svg>
