<svg width="35" height="34" viewBox="0 0 35 34" fill="none" xmlns="http://www.w3.org/2000/svg">
<path fill-rule="evenodd" clip-rule="evenodd" d="M25.5213 17.0518C25.5213 16.4851 25.4703 15.9403 25.3755 15.4172H17.8249V18.5083H22.1395C21.9537 19.5072 21.3889 20.3536 20.5398 20.9202V22.9253H23.1307C24.6467 21.5341 25.5213 19.4854 25.5213 17.0518Z" fill="#4285F4"/>
<path fill-rule="evenodd" clip-rule="evenodd" d="M17.8253 24.8612C19.9899 24.8612 21.8046 24.1457 23.1311 22.9252L20.5401 20.9202C19.8222 21.3996 18.9039 21.6829 17.8253 21.6829C15.7372 21.6829 13.9698 20.2772 13.3394 18.3884H10.6609V20.4589C11.9801 23.0705 14.6913 24.8612 17.8253 24.8612Z" fill="#34A853"/>
<path fill-rule="evenodd" clip-rule="evenodd" d="M13.3394 18.3885C13.1791 17.9091 13.088 17.3969 13.088 16.8702C13.088 16.3435 13.1791 15.8314 13.3394 15.3519V13.2815H10.661C10.118 14.3603 9.80827 15.5808 9.80827 16.8702C9.80827 18.1597 10.118 19.3802 10.661 20.459L13.3394 18.3885Z" fill="#FBBC05"/>
<path fill-rule="evenodd" clip-rule="evenodd" d="M17.8253 12.0571C19.0023 12.0571 20.0591 12.4603 20.89 13.2521L23.1894 10.9601C21.801 9.67063 19.9862 8.87878 17.8253 8.87878C14.6913 8.87878 11.9801 10.6695 10.6609 13.2812L13.3394 15.3516C13.9698 13.4628 15.7372 12.0571 17.8253 12.0571Z" fill="#EA4335"/>
</svg>
