<svg width="64" height="64" viewBox="0 0 64 64" fill="none" xmlns="http://www.w3.org/2000/svg">
<g clip-path="url(#clip0)">
<path d="M32 1.25C23.125 1.25 3.75 10.0172 3.75 27C3.75 43.9827 21.375 62.75 32 62.75C42.625 62.75 60.25 43.9827 60.25 27C60.25 10.0172 40.875 1.25 32 1.25Z" fill="#89DF8F"/>
<path d="M12.0693 20.8192C12.0693 20.8192 11.2376 28.3047 15.3415 32.4085C19.4454 36.5125 26.9309 35.6808 26.9309 35.6808C26.9309 35.6808 27.7625 28.1954 23.6586 24.0914C19.5546 19.9875 12.0693 20.8192 12.0693 20.8192Z" fill="#8690AF"/>
<path d="M40.3415 24.0914C36.2376 28.1954 37.0693 35.6808 37.0693 35.6808C37.0693 35.6808 44.5546 36.5124 48.6586 32.4086C52.7625 28.3047 51.9309 20.8192 51.9309 20.8192C51.9309 20.8192 44.4454 19.9874 40.3415 24.0914Z" fill="#8690AF"/>
<path d="M53.3994 48.1199C54.0897 48.1199 54.6494 47.5602 54.6494 46.8699C54.6494 46.1795 54.0897 45.6199 53.3994 45.6199C52.709 45.6199 52.1494 46.1795 52.1494 46.8699C52.1494 47.5602 52.709 48.1199 53.3994 48.1199Z" fill="black"/>
<path d="M60.6 20.6659C57.2306 9.16315 43.8858 -0.0123545 32 -0.000354454C30.7875 0.000895546 29.44 0.147146 27.9951 0.433396C15.4574 2.91702 2.48926 13.3095 2.50001 26.9996C2.50626 35.0166 5.76238 42.7416 10.5001 49.0989C14.9009 55.0039 21.7149 61.8824 29.1251 63.6374C30.0653 63.86 31.0321 64.0026 32 63.9996C34.835 63.9909 38.0375 62.8596 41.5175 60.6383C44.77 58.5545 48.0375 55.6246 50.9663 52.1659C51.1813 51.9109 51.285 51.5871 51.2575 51.2546C51.23 50.9221 51.075 50.6196 50.82 50.4046C50.5938 50.2134 50.3075 50.1084 50.0125 50.1084C49.6438 50.1084 49.2963 50.2696 49.0575 50.5509C46.2888 53.8234 43.215 56.5846 40.1688 58.5333C37.195 60.4458 34.305 61.4995 32.0313 61.4995H31.9688C29.6813 61.4995 26.7725 60.4344 23.78 58.5008C19.0975 55.492 14.4188 50.6108 10.9438 45.1058C7.10501 39.0434 4.99501 32.6121 5.00001 26.9996C5.00126 23.2596 6.00626 19.7146 7.98376 16.4621C10.4738 12.3658 14.6475 8.6609 19.7363 6.02827C23.925 3.85202 28.6113 2.49965 31.9638 2.49965H32.0188C34.1338 2.49965 36.9475 3.06965 39.74 4.0634C44.7663 5.8434 49.3875 8.75215 52.75 12.2559C56.8938 16.5746 58.9963 21.5359 59 26.9996C59.0025 31.5021 57.6675 36.4996 55.14 41.4521C54.9888 41.7496 54.9625 42.0884 55.065 42.4059C55.1688 42.7234 55.3888 42.982 55.6863 43.1333C55.8638 43.2245 56.055 43.2709 56.2525 43.2709C56.7263 43.2709 57.1525 43.0083 57.3675 42.5884C58.6713 40.0284 59.6838 37.4496 60.3763 34.9234C61.1213 32.2096 61.4988 29.5434 61.5 26.9996C61.5013 24.8371 61.1975 22.7059 60.6 20.6659Z" fill="black"/>
<path d="M27.928 49.7077C29.279 50.0679 30.6395 50.248 32.0001 50.248C33.3607 50.248 34.7212 50.0679 36.0722 49.7077C36.7392 49.5298 37.1359 48.8449 36.958 48.1779C36.7801 47.5108 36.095 47.1139 35.4281 47.2922C33.1536 47.8987 30.8469 47.8987 28.5722 47.2922C27.9051 47.1142 27.2202 47.5108 27.0424 48.1779C26.8644 48.8449 27.2609 49.5298 27.928 49.7077Z" fill="black"/>
<path d="M28.1733 35.8187C28.2099 35.4885 29.0196 27.6848 24.5425 23.2073C20.0653 18.7302 12.2614 19.5395 11.9313 19.5767C11.3503 19.6412 10.8915 20.0999 10.827 20.6809C10.7904 21.011 9.98063 28.8148 14.4579 33.2923C17.695 36.5293 22.6709 37.0027 25.3039 37.0027C26.3125 37.0027 26.9777 36.9332 27.0691 36.9229C27.65 36.8584 28.1086 36.3997 28.1733 35.8187ZM25.7435 34.493C23.6653 34.5365 18.9934 34.2924 16.2255 31.5244C13.4571 28.756 13.2143 24.0837 13.2568 22.0064C15.335 21.9639 20.0069 22.207 22.7749 24.975C25.543 27.7435 25.7859 32.4159 25.7435 34.493Z" fill="black"/>
<path d="M49.5425 33.2924C54.0198 28.815 53.21 21.0111 53.1733 20.681C53.1086 20.1 52.65 19.6412 52.069 19.5767C51.7389 19.5395 43.9349 18.7301 39.4578 23.2074C34.9805 27.6847 35.7903 35.4886 35.827 35.8187C35.8916 36.3997 36.3503 36.8585 36.9313 36.923C37.0226 36.9332 37.6874 37.0027 38.6965 37.0027C41.3295 37.0027 46.3055 36.5291 49.5425 33.2924ZM38.2566 34.4932C38.2143 32.4147 38.4574 27.7431 41.2254 24.9751C43.9938 22.2067 48.6656 21.9641 50.7434 22.0064C50.7858 24.0849 50.5426 28.7565 47.7746 31.5245C45.0063 34.2929 40.3343 34.5349 38.2566 34.4932Z" fill="black"/>
</g>
<defs>
<clipPath id="clip0">
<rect width="64" height="64" fill="white"/>
</clipPath>
</defs>
</svg>
