<svg width="64" height="64" viewBox="0 0 64 64" fill="none" xmlns="http://www.w3.org/2000/svg">
<path d="M54.6274 9.37256C48.5835 3.32861 40.5474 0 32 0C25.4961 0 19.2344 1.94189 13.8916 5.61523C13.3228 6.00684 13.1787 6.78467 13.5698 7.35352C13.9609 7.92236 14.7393 8.06641 15.3081 7.67529C20.2324 4.28955 26.0044 2.5 32 2.5C48.2661 2.5 61.5 15.7339 61.5 32C61.5 48.2661 48.2661 61.5 32 61.5C15.7339 61.5 2.5 48.2661 2.5 32C2.5 26.0034 4.28955 20.2319 7.6748 15.3086C8.06592 14.7397 7.92236 13.9619 7.35352 13.5708C6.78467 13.1792 6.00635 13.3232 5.61523 13.8921C1.94141 19.2339 0 25.4956 0 32C0 40.5474 3.32861 48.5835 9.37256 54.6274C15.4165 60.6714 23.4526 64 32 64C40.5474 64 48.5835 60.6714 54.6274 54.6274C60.6714 48.5835 64 40.5474 64 32C64 23.4526 60.6714 15.4165 54.6274 9.37256Z" fill="black"/>
<path d="M21.6333 44.0728C21.1455 43.585 20.354 43.5845 19.8657 44.0728C19.3774 44.561 19.3774 45.3525 19.8657 45.8408C23.1069 49.082 27.4165 50.8667 32 50.8667C36.5835 50.8667 40.8931 49.082 44.1343 45.8408C44.6226 45.3525 44.6226 44.561 44.1343 44.0728C43.646 43.5845 42.8545 43.5845 42.3662 44.0728C39.5977 46.8418 35.916 48.3667 32 48.3667C28.084 48.3667 24.4023 46.8418 21.6333 44.0728Z" fill="black"/>
<path d="M22 34.5C23.3784 34.5 24.5 33.3784 24.5 32C24.5 30.6216 23.3784 29.5 22 29.5C20.6211 29.5 19.5 30.6216 19.5 32C19.5 33.3784 20.6211 34.5 22 34.5Z" fill="black"/>
<path d="M39.5005 32C39.5005 33.3784 40.6221 34.5 42.0005 34.5C43.3789 34.5 44.5005 33.3784 44.5005 32C44.5005 30.6216 43.3789 29.5 42.0005 29.5C40.6221 29.5 39.5005 30.6216 39.5005 32Z" fill="black"/>
<path d="M27.0156 23.312C25.4927 22.4326 23.7583 21.9683 22 21.9683C20.2412 21.9683 18.5068 22.4326 16.9839 23.312C16.3857 23.6572 16.1812 24.4219 16.5264 25.0195C16.7578 25.4204 17.1777 25.6445 17.6099 25.6445C17.8218 25.6445 18.0371 25.5908 18.2339 25.4771C19.377 24.8169 20.6797 24.4678 22 24.4678C23.3203 24.4678 24.6226 24.8169 25.7656 25.4771C26.3638 25.8223 27.1279 25.6172 27.4731 25.0195C27.8184 24.4219 27.6138 23.6572 27.0156 23.312Z" fill="black"/>
<path d="M46.3901 25.6445C46.8223 25.6445 47.2422 25.4204 47.4736 25.0195C47.8189 24.4219 47.6143 23.6572 47.0161 23.312C45.4932 22.4326 43.7588 21.9683 42.0005 21.9683C40.2417 21.9683 38.5073 22.4326 36.9844 23.312C36.3867 23.6572 36.1816 24.4219 36.5269 25.0195C36.8721 25.6172 37.6367 25.8223 38.2344 25.4771C39.3779 24.8169 40.6802 24.4678 42.0005 24.4678C43.3208 24.4678 44.6231 24.8169 45.7661 25.4771C45.9634 25.5908 46.1782 25.6445 46.3901 25.6445Z" fill="black"/>
<path d="M10.2554 11.5067C10.5957 11.5067 10.9346 11.3685 11.1812 11.0971C11.6455 10.5863 11.6079 9.79579 11.0972 9.33144C10.5864 8.86708 9.7959 8.90468 9.33154 9.41542L9.33106 9.4164C8.8667 9.92714 8.9043 10.7172 9.41504 11.1815C9.65479 11.3993 9.95557 11.5067 10.2554 11.5067Z" fill="black"/>
</svg>
