<svg width="99" height="24" viewBox="0 0 99 24" fill="none" xmlns="http://www.w3.org/2000/svg">
<path d="M75.9339 5.36719H70.5123C70.1414 5.36719 69.8258 5.63777 69.7682 6.00495L67.5759 19.9516C67.5327 20.2266 67.7445 20.4755 68.0225 20.4755H70.8043C71.0637 20.4755 71.2847 20.2861 71.3252 20.0289L71.9469 16.0751C72.0044 15.7079 72.3201 15.437 72.6909 15.437H74.4065C77.9775 15.437 80.0386 13.7032 80.5773 10.2668C80.8196 8.76402 80.5869 7.58304 79.8857 6.75618C79.1143 5.84783 77.7476 5.36719 75.9339 5.36719ZM76.5594 10.4611C76.263 12.4136 74.7766 12.4136 73.3393 12.4136H72.5212L73.0949 8.76849C73.1295 8.54811 73.3191 8.38583 73.5415 8.38583H73.9164C74.8949 8.38583 75.8195 8.38583 76.2959 8.94521C76.581 9.27939 76.6673 9.77551 76.5594 10.4611Z" fill="#009ADE"/>
<path d="M37.2645 5.36719H31.8428C31.472 5.36719 31.1564 5.63777 31.0988 6.00495L28.9065 19.9516C28.8633 20.2266 29.0751 20.4755 29.353 20.4755H31.9415C32.3123 20.4755 32.628 20.205 32.6856 19.8378L33.2771 16.0751C33.3347 15.7079 33.6503 15.437 34.0211 15.437H35.7367C39.3078 15.437 41.3688 13.7032 41.9076 10.2668C42.1499 8.76402 41.9172 7.58304 41.216 6.75618C40.4449 5.84783 39.0781 5.36719 37.2645 5.36719ZM37.89 10.4611C37.5935 12.4136 36.1072 12.4136 34.6699 12.4136H33.8518L34.4255 8.76849C34.4601 8.54811 34.6496 8.38583 34.8721 8.38583H35.247C36.2254 8.38583 37.1501 8.38583 37.6264 8.94521C37.9116 9.27939 37.9979 9.77551 37.89 10.4611Z" fill="#002F87"/>
<path d="M53.4693 10.3985H50.8733C50.6508 10.3985 50.4613 10.5607 50.4267 10.7811L50.3126 11.5093L50.1309 11.2456C49.5686 10.427 48.3156 10.1533 47.0644 10.1533C44.1962 10.1533 41.7462 12.3338 41.2691 15.3919C41.021 16.9178 41.3733 18.3755 42.2356 19.3932C43.0279 20.3284 44.1585 20.7172 45.5054 20.7172C47.8173 20.7172 49.0994 19.2271 49.0994 19.2271L48.9836 19.9512C48.94 20.2266 49.1522 20.4755 49.4301 20.4755H51.7681C52.1386 20.4755 52.4542 20.2049 52.5121 19.8377L53.9155 10.9221C53.959 10.647 53.7469 10.3985 53.4693 10.3985ZM49.8513 15.4679C49.6004 16.9559 48.4232 17.955 46.9211 17.955C46.1682 17.955 45.5654 17.712 45.1777 17.2519C44.7936 16.7957 44.6493 16.1463 44.7709 15.4225C45.0047 13.9476 46.2011 12.9165 47.6802 12.9165C48.4174 12.9165 49.0161 13.1616 49.4109 13.6261C49.8088 14.0937 49.9651 14.7476 49.8513 15.4679Z" fill="#002F87"/>
<path d="M92.1389 10.3985H89.5428C89.3204 10.3985 89.1309 10.5607 89.0963 10.7811L88.9822 11.5093L88.8009 11.2456C88.2385 10.427 86.9855 10.1533 85.7343 10.1533C82.8661 10.1533 80.4161 12.3338 79.939 15.3919C79.6909 16.9178 80.0432 18.3755 80.9055 19.3932C81.6978 20.3284 82.8284 20.7172 84.1753 20.7172C86.4872 20.7172 87.7693 19.2271 87.7693 19.2271L87.6535 19.9512C87.6099 20.2266 87.8221 20.4755 88.1 20.4755H90.438C90.8088 20.4755 91.1241 20.2049 91.182 19.8377L92.5854 10.9221C92.6286 10.647 92.4165 10.3985 92.1389 10.3985ZM88.5209 15.4679C88.27 16.9559 87.0924 17.955 85.5907 17.955C84.8378 17.955 84.2349 17.712 83.8473 17.2519C83.4631 16.7957 83.3189 16.1463 83.4405 15.4225C83.6743 13.9476 84.8707 12.9165 86.3498 12.9165C87.087 12.9165 87.6857 13.1616 88.0805 13.6261C88.4784 14.0937 88.6347 14.7476 88.5209 15.4679Z" fill="#009ADE"/>
<path d="M67.2963 10.3984H64.6869C64.4374 10.3984 64.204 10.5226 64.0638 10.7299L60.4643 16.0483L58.9389 10.9375C58.8433 10.6178 58.5503 10.3984 58.2172 10.3984H55.652C55.3422 10.3984 55.1242 10.7041 55.2243 10.9984L58.0976 19.4592L55.395 23.2847C55.1828 23.5849 55.397 24.0002 55.7637 24.0002H58.3707C58.6178 24.0002 58.8491 23.8785 58.99 23.675L67.6681 11.1105C67.8755 10.8096 67.6609 10.3984 67.2963 10.3984Z" fill="#002F87"/>
<path d="M95.1986 5.74985L92.9734 19.9516C92.9302 20.2266 93.1423 20.4755 93.4199 20.4755H95.6578C96.0286 20.4755 96.3439 20.205 96.4019 19.8378L98.5959 5.89115C98.6391 5.61611 98.4273 5.36719 98.1493 5.36719H95.6448C95.4224 5.36684 95.2329 5.52947 95.1986 5.74985Z" fill="#009ADE"/>
<path d="M18.2706 6.09746C18.5626 4.23057 18.2686 2.9602 17.262 1.80947C16.1537 0.542531 14.1516 0 11.5902 0H4.15472C3.63106 0 3.18553 0.381972 3.10397 0.90078L0.00791892 20.5969C-0.0530836 20.9854 0.246103 21.3371 0.638507 21.3371H5.22878L4.91177 23.3525C4.85831 23.6926 5.12014 23.9999 5.46319 23.9999H9.3324C9.79026 23.9999 10.1803 23.6658 10.2515 23.2119L10.2896 23.0146L11.0185 18.378L11.0655 18.1218C11.1368 17.668 11.5268 17.3338 11.9846 17.3338H12.5635C16.3117 17.3338 19.2467 15.8059 20.1041 11.388C20.4626 9.54174 20.2772 8.00078 19.3296 6.91744C19.0431 6.58945 18.6863 6.31852 18.2706 6.09746Z" fill="#009ADE"/>
<path d="M18.2706 6.09746C18.5626 4.23057 18.2686 2.9602 17.262 1.80947C16.1537 0.542531 14.1516 0 11.5902 0H4.15472C3.63106 0 3.18553 0.381972 3.10397 0.90078L0.00791892 20.5969C-0.0530836 20.9854 0.246103 21.3371 0.638507 21.3371H5.22878L6.382 14.002L6.34636 14.232C6.42792 13.7132 6.87002 13.3312 7.39334 13.3312H9.57504C13.8596 13.3312 17.2148 11.585 18.1949 6.53444C18.2233 6.38488 18.2484 6.23979 18.2706 6.09746Z" fill="#002169"/>
<path d="M7.62022 6.12221C7.66922 5.81003 7.86902 5.55458 8.13771 5.42531C8.26006 5.36652 8.39646 5.33386 8.53937 5.33386H14.3679C15.0584 5.33386 15.702 5.37924 16.2908 5.47413C16.4591 5.50129 16.6225 5.53258 16.7816 5.56799C16.9406 5.6034 17.0948 5.64294 17.2442 5.68695C17.3189 5.70895 17.3923 5.73164 17.4646 5.75605C17.7535 5.85232 18.0225 5.96578 18.2703 6.09745C18.5623 4.23057 18.2682 2.9602 17.2617 1.80947C16.1534 0.542531 14.1513 0 11.5898 0H4.15472C3.63106 0 3.18554 0.381972 3.10397 0.90078L0.00791892 20.5969C-0.0530836 20.9854 0.246103 21.3368 0.638507 21.3368H5.22878L6.38166 14.0016L7.62022 6.12221Z" fill="#002F87"/>
</svg>
