<svg width="38" height="24" viewBox="0 0 38 24" fill="none" xmlns="http://www.w3.org/2000/svg">
<g clip-path="url(#clip0)">
<path fill-rule="evenodd" clip-rule="evenodd" d="M15.9383 7.77148C16.3688 7.77148 16.7299 7.85712 17.1693 8.0638V9.15585C16.7531 8.77843 16.392 8.62046 15.9146 8.62046C14.976 8.62046 14.238 9.34118 14.238 10.2549C14.238 11.2185 14.9532 11.8963 15.9611 11.8963C16.4148 11.8963 16.7692 11.7465 17.1693 11.3751V12.4678C16.7143 12.6665 16.3455 12.745 15.9146 12.745C14.3908 12.745 13.2067 11.6604 13.2067 10.2616C13.2067 8.87798 14.4223 7.77148 15.9383 7.77148ZM11.2072 7.80158C11.7697 7.80158 12.2843 7.98014 12.7147 8.32929L12.191 8.96519C11.9304 8.69419 11.6839 8.57985 11.3841 8.57985C10.9528 8.57985 10.6387 8.80761 10.6387 9.10732C10.6387 9.36431 10.815 9.50035 11.4154 9.70646C12.5537 10.0926 12.8911 10.4349 12.8911 11.1909C12.8911 12.1122 12.1615 12.7534 11.1217 12.7534C10.3602 12.7534 9.80659 12.4753 9.34552 11.8476L9.99191 11.2702C10.2223 11.6834 10.6068 11.9048 11.0842 11.9048C11.5306 11.9048 11.8611 11.6191 11.8611 11.2336C11.8611 11.0337 11.761 10.8623 11.5611 10.7412C11.4604 10.6838 11.2611 10.5983 10.8693 10.4701C9.92945 10.1563 9.60699 9.82084 9.60699 9.16526C9.60699 8.38646 10.2995 7.80158 11.2072 7.80158ZM22.6424 7.88452H23.7355L25.1037 11.0809L26.4895 7.88452H27.5743L25.3579 12.7654H24.8195L22.6424 7.88452ZM3.28442 7.89182H4.75327C6.37616 7.89182 7.50749 8.87015 7.50749 10.2746C7.50749 10.9749 7.1614 11.652 6.5761 12.1013C6.08366 12.4806 5.52253 12.6507 4.74557 12.6507H3.28442V7.89182ZM7.96792 7.89182H8.96859V12.6507H7.96792V7.89182ZM28.0268 7.89182H30.8647V8.69822H29.0268V9.75446H30.797V10.5604H29.0268V11.845H30.8647V12.6507H28.0268V7.89182H28.0268ZM31.5275 7.89182H33.0112C34.1654 7.89182 34.8267 8.4059 34.8267 9.29687C34.8267 10.0255 34.4119 10.5036 33.6582 10.6459L35.2731 12.6507H34.0425L32.6574 10.7389H32.527V12.6507H31.5275V7.89182ZM32.527 8.64139V10.0826H32.8194C33.4584 10.0826 33.7971 9.82521 33.7971 9.34684C33.7971 8.88374 33.4583 8.64139 32.8352 8.64139H32.527ZM4.28441 8.69817V11.845H4.55294C5.19958 11.845 5.60798 11.7301 5.9224 11.4668C6.26845 11.1809 6.47662 10.7244 6.47662 10.2677C6.47662 9.81177 6.26845 9.36892 5.9224 9.08303C5.59185 8.80559 5.19958 8.69817 4.55294 8.69817H4.28441Z" fill="#4D4D4D"/>
<path fill-rule="evenodd" clip-rule="evenodd" d="M20.2242 7.73833C21.7316 7.73833 22.9535 8.87017 22.9535 10.2684V10.2699C22.9535 11.6682 21.7316 12.8016 20.2243 12.8016C18.717 12.8016 17.495 11.6681 17.495 10.2699V10.2684C17.495 8.87012 18.717 7.73828 20.2243 7.73828L20.2242 7.73833ZM37.999 13.8415C36.7299 14.7214 27.2284 21.0099 10.7778 24.0473H35.32C36.7993 24.0473 37.9991 22.8651 37.9991 21.4071V13.8413L37.999 13.8415Z" fill="#F47216"/>
<path d="M0.25 2.64019C0.25 1.32375 1.33438 0.25 2.6791 0.25H35.3209C36.666 0.25 37.75 1.32346 37.75 2.64019V21.4078C37.75 22.7242 36.6656 23.798 35.3209 23.798H2.6791C1.334 23.798 0.25 22.7245 0.25 21.4078V2.64019Z" stroke="#4D4D4D" stroke-width="0.5"/>
</g>
<defs>
<clipPath id="clip0">
<rect width="38" height="24" fill="white"/>
</clipPath>
</defs>
</svg>
