<svg width="34" height="11" viewBox="0 0 34 11" fill="none" xmlns="http://www.w3.org/2000/svg">
<path d="M33.9998 10.9937C33.1397 10.9937 32.28 10.9937 31.407 10.9937C31.3122 10.528 31.2103 10.0721 31.1301 9.61264C31.0966 9.42197 31.0371 9.34791 30.8286 9.35056C29.7891 9.36426 28.7491 9.3609 27.7095 9.35248C27.5521 9.35128 27.4895 9.40442 27.4417 9.55085C27.2984 9.98869 27.142 10.4222 26.9817 10.854C26.9601 10.9127 26.8878 10.993 26.8384 10.9935C25.9012 11.0019 24.964 10.9998 24 10.9998C24.1758 10.5674 24.3421 10.1546 24.5111 9.74272C25.7193 6.79682 26.9283 3.85092 28.137 0.905265C28.3989 0.267131 28.7912 0 29.4665 0C30.2187 0 30.9712 0 31.7428 0C31.8181 0.359221 31.8938 0.713151 31.9661 1.06756C32.5607 3.97884 33.1539 6.89035 33.7499 9.80139C33.8261 10.1743 33.9162 10.5441 34 10.9156C33.9998 10.9416 33.9998 10.9678 33.9998 10.9937ZM30.6065 7.08703C30.3303 5.73334 30.0576 4.39769 29.7851 3.06227C29.774 3.06011 29.7627 3.0577 29.7517 3.05554C29.2766 4.39432 28.8018 5.73334 28.3215 7.08703C29.0971 7.08703 29.8399 7.08703 30.6065 7.08703Z" fill="url(#paint0_linear)"/>
<path d="M23.1422 0C23.4655 0.0627944 23.7912 0.114425 24.1114 0.191639C24.4035 0.262108 24.6894 0.360253 25 0.452817C24.8435 1.21821 24.6907 1.96546 24.5413 2.69644C24.1318 2.57085 23.7403 2.42619 23.3379 2.33316C22.7874 2.20618 22.2236 2.15757 21.6729 2.31804C21.449 2.3834 21.2224 2.50852 21.0464 2.66644C20.7442 2.93738 20.74 3.3274 21.0288 3.61184C21.2278 3.8079 21.4639 3.96907 21.6995 4.11722C22.2356 4.45445 22.7983 4.74772 23.3192 5.10774C23.9326 5.53195 24.3801 6.11501 24.4742 6.90366C24.6403 8.29816 24.1474 9.39683 23.0275 10.1739C22.3234 10.6625 21.5264 10.8809 20.6962 10.9616C19.5368 11.0744 18.4002 10.9385 17.2926 10.5578C17.2183 10.5322 17.1461 10.5004 17.0736 10.4695C17.052 10.4601 17.0331 10.4439 17 10.4222C17.1565 9.65568 17.3133 8.88796 17.4742 8.09861C17.663 8.1849 17.8404 8.27142 18.0216 8.3477C18.8871 8.71261 19.7809 8.87936 20.7073 8.69795C20.9483 8.65074 21.1942 8.53934 21.3983 8.39608C21.8416 8.08513 21.8841 7.50114 21.4806 7.136C21.2153 6.89599 20.8963 6.71877 20.5941 6.5262C20.1219 6.22525 19.6203 5.96896 19.1737 5.63219C18.601 5.20054 18.1861 4.62516 18.1076 3.86023C17.9898 2.71504 18.3962 1.78499 19.2366 1.06262C19.9678 0.433978 20.8358 0.154893 21.7607 0.0376763C21.812 0.0311643 21.8621 0.0127914 21.9128 0C22.3221 0 22.7323 0 23.1422 0Z" fill="url(#paint1_linear)"/>
<path d="M13 0.0125163C12.8551 0.370243 12.7178 0.711633 12.5787 1.05182C11.2508 4.30187 9.92123 7.5512 8.59868 10.8037C8.53569 10.9586 8.45865 10.9992 8.30551 10.998C7.46744 10.9908 6.62914 10.9879 5.79107 10.9999C5.61334 11.0023 5.5555 10.9384 5.51453 10.7751C4.80408 7.93415 4.08169 5.09661 3.3792 2.25353C3.25041 1.73196 2.99236 1.37567 2.50859 1.15705C1.73304 0.80653 0.927752 0.560518 0.106544 0.360393C0.0702492 0.351504 0.0339536 0.341894 0 0.333005C0.00398076 0.00338692 0.00398388 0.00338742 0.3098 0.00338742C1.77659 0.00338742 3.24339 0.00314705 4.71018 0.00362754C5.40588 0.00386778 5.90815 0.418533 6.03952 1.12486C6.41184 3.12491 6.77619 5.1264 7.14406 7.12741C7.16022 7.21486 7.17849 7.30207 7.20284 7.42531C7.24077 7.35204 7.26747 7.31071 7.28479 7.26579C8.19569 4.90177 9.10705 2.53774 10.0135 0.1718C10.0629 0.0425476 10.124 -0.00117724 10.2598 2.39927e-05C11.1105 0.00699113 11.9615 0.00338716 12.8124 0.00386765C12.8672 0.0041079 12.9223 0.00891265 13 0.0125163Z" fill="url(#paint2_linear)"/>
<path d="M12 10.994C12.7558 7.31508 13.5064 3.66211 14.2587 0C15.1739 0 16.0784 0 17 0C16.8859 0.557628 16.7743 1.10491 16.6621 1.65171C16.041 4.67657 15.4176 7.7007 14.8034 10.727C14.7607 10.9373 14.6893 11.0041 14.4796 10.9998C13.7282 10.9846 12.9766 10.9938 12.225 10.9938C12.1578 10.994 12.0905 10.994 12 10.994Z" fill="url(#paint3_linear)"/>
<defs>
<linearGradient id="paint0_linear" x1="1.48752" y1="5.70026" x2="33.8192" y2="5.4921" gradientUnits="userSpaceOnUse">
<stop stop-color="#262860"/>
<stop offset="1" stop-color="#3C429A"/>
</linearGradient>
<linearGradient id="paint1_linear" x1="3.09386" y1="5.6228" x2="33.6431" y2="5.43066" gradientUnits="userSpaceOnUse">
<stop stop-color="#262860"/>
<stop offset="1" stop-color="#3C429A"/>
</linearGradient>
<linearGradient id="paint2_linear" x1="1.91735" y1="5.51699" x2="34.0928" y2="5.31067" gradientUnits="userSpaceOnUse">
<stop stop-color="#262860"/>
<stop offset="1" stop-color="#3C429A"/>
</linearGradient>
<linearGradient id="paint3_linear" x1="2.16425" y1="5.58374" x2="33.9023" y2="5.38328" gradientUnits="userSpaceOnUse">
<stop stop-color="#262860"/>
<stop offset="1" stop-color="#3C429A"/>
</linearGradient>
</defs>
</svg>
