<svg width="38" height="24" viewBox="0 0 38 24" fill="none" xmlns="http://www.w3.org/2000/svg">
<g clip-path="url(#clip0)">
<path d="M1.94872 0.000976562H36.0513C37.1276 0.000976562 38 0.860609 38 1.92098V22.081C38 23.1414 37.1276 24.001 36.0513 24.001H1.94872C0.87249 24.001 0 23.1414 0 22.081V1.92098C0 0.860609 0.87249 0.000976562 1.94872 0.000976562Z" fill="#2557D6"/>
<path d="M0.0124506 11.313H1.8365L2.24778 10.3766H3.16855L3.57875 11.313H7.1677V10.5971L7.48807 11.3162H9.35119L9.67156 10.5865V11.3131H18.5908L18.5867 9.77585H18.7593C18.88 9.77983 18.9154 9.79035 18.9154 9.9787V11.3131H23.5284V10.9553C23.9006 11.1434 24.4793 11.3131 25.2407 11.3131H27.1815L27.5968 10.3766H28.5176L28.9237 11.3131H32.6636V10.4236L33.23 11.3131H36.2268V5.43262H33.2609V6.12708L32.8457 5.43262H29.8023V6.12708L29.4209 5.43262H25.3101C24.622 5.43262 24.0171 5.52329 23.5285 5.77596V5.43262H20.6917V5.77596C20.3807 5.51551 19.9571 5.43262 19.4859 5.43262H9.12168L8.42628 6.95139L7.71213 5.43262H4.44778V6.12708L4.08912 5.43262H1.30513L0.012207 8.22843V11.313H0.0123532L0.0124506 11.313ZM11.5265 10.4649H10.432L10.428 7.16278L8.87999 10.4648H7.94266L6.3906 7.15985V10.4648H4.21924L3.80904 9.52443H1.58619L1.17184 10.4648H0.0123045L1.92405 6.24867H3.51025L5.32592 10.2405V6.24867H7.06837L8.4655 9.10884L9.74893 6.24867H11.5264L11.5265 10.4649ZM3.44414 8.64939L2.71347 6.96857L1.98684 8.64939H3.44414ZM15.8818 10.4648H12.3155V6.24862H15.8818V7.12659H13.3831V7.88657H15.822V8.75081H13.3831V9.59283H15.8818L15.8818 10.4648ZM20.9076 7.38415C20.9076 8.05635 20.4323 8.40367 20.1554 8.50793C20.389 8.59183 20.5886 8.74015 20.6835 8.86299C20.8343 9.0727 20.8603 9.25999 20.8603 9.63655V10.4648H19.7834L19.7794 9.9331C19.7794 9.67942 19.8051 9.31457 19.6109 9.11172C19.4549 8.9634 19.2171 8.93124 18.8327 8.93124H17.6867V10.4648H16.6191V6.24862H19.0746C19.6202 6.24862 20.0222 6.2622 20.3673 6.45055C20.7051 6.63891 20.9076 6.91385 20.9076 7.38415ZM19.5581 8.01017C19.4114 8.09427 19.2379 8.09705 19.03 8.09705H17.7331V7.16057H19.0476C19.2336 7.16057 19.4278 7.16844 19.554 7.2366C19.6924 7.29804 19.7781 7.42875 19.7781 7.60932C19.7781 7.79364 19.6965 7.94191 19.5581 8.01017ZM22.6198 10.4648H21.5305V6.24862H22.6198V10.4648ZM35.265 10.4648H33.7522L31.7287 7.3003V10.4648H29.5545L29.1391 9.52438H26.9214L26.5184 10.4648H25.2689C24.7501 10.4648 24.093 10.3565 23.721 9.99847C23.3458 9.64049 23.1506 9.15559 23.1506 8.38889C23.1506 7.76359 23.2673 7.19196 23.7261 6.74023C24.0712 6.40375 24.6117 6.24862 25.3474 6.24862H26.3809V7.15203H25.369C24.9794 7.15203 24.7594 7.20675 24.5475 7.40177C24.3656 7.57932 24.2407 7.91489 24.2407 8.35683C24.2407 8.80851 24.3358 9.13423 24.5341 9.34697C24.6985 9.51382 24.9973 9.56441 25.2782 9.56441H25.7576L27.2622 6.24876H28.8619L30.6694 10.2366V6.24881H32.295L34.1715 9.18516V6.24881H35.265V10.4648ZM28.7758 8.64943L28.037 6.96862L27.3022 8.64943H28.7758ZM37.9854 17.1973C37.7261 17.5552 37.2208 17.7367 36.5367 17.7367H34.475V16.8324H36.5284C36.732 16.8324 36.8745 16.8071 36.9604 16.728C37.0415 16.6572 37.0873 16.5574 37.0866 16.453C37.0866 16.3301 37.0348 16.2325 36.9562 16.1741C36.8787 16.1096 36.766 16.0805 36.58 16.0805C35.5777 16.0483 34.3271 16.1096 34.3271 14.7751C34.3271 14.1635 34.7384 13.5197 35.8587 13.5197H37.9852V12.6807H36.0094C35.4132 12.6807 34.98 12.8155 34.6733 13.025V12.6806H31.7509C31.2835 12.6806 30.735 12.79 30.4755 13.025V12.6806H25.2569V13.025C24.8416 12.7422 24.1408 12.6806 23.8173 12.6806H20.3751V13.025C20.0465 12.7246 19.3159 12.6806 18.8704 12.6806H15.0179L14.1364 13.5813L13.3107 12.6806H7.55565V18.5649H13.2021L14.1104 17.65L14.9662 18.5649L18.4467 18.5679V17.1836H18.7887C19.2505 17.1904 19.7952 17.1727 20.2758 16.9767V18.5647H23.1466V17.0311H23.2851C23.4618 17.0311 23.4792 17.038 23.4792 17.2046V18.5646H32.2002C32.7538 18.5646 33.3326 18.4308 33.6532 18.188V18.5646H36.4194C36.995 18.5646 37.5571 18.4884 37.9849 18.2934L37.985 17.1971L37.9854 17.1973ZM20.6935 14.9338C20.6935 16.1053 19.7676 16.3472 18.8344 16.3472H17.5023V17.7617H15.4274L14.1128 16.3656L12.7466 17.7617H8.51783V13.5445H12.8116L14.1251 14.9268L15.4831 13.5445H18.8944C19.7415 13.5445 20.6935 13.7659 20.6935 14.9338ZM12.2058 16.8747H9.581V16.0356H11.9248V15.1752H9.581V14.4084H12.2575L13.4252 15.6374L12.2058 16.8747ZM16.435 17.3575L14.796 15.6397L16.435 13.9765V17.3575ZM18.8591 15.4824H17.4795V14.4084H18.8715C19.2569 14.4084 19.5245 14.5567 19.5245 14.9255C19.5245 15.2902 19.2693 15.4824 18.8591 15.4824ZM26.0869 13.5445H29.65V14.4166H27.1501V15.1833H29.589V16.0438H27.1501V16.8828L29.65 16.8867V17.7617H26.0868L26.0869 13.5445ZM24.717 15.8019C24.9546 15.8847 25.1489 16.033 25.2399 16.1559C25.3907 16.3618 25.4125 16.554 25.4168 16.9256V17.7617H24.3449V17.2341C24.3449 16.9804 24.3708 16.6047 24.1724 16.4086C24.0164 16.2575 23.7786 16.2214 23.3892 16.2214H22.2482V17.7618H21.1754V13.5445H23.6403C24.1807 13.5445 24.5743 13.5671 24.9248 13.7435C25.2616 13.9357 25.4736 14.1989 25.4736 14.6801C25.4736 15.3531 24.9979 15.6966 24.717 15.8019ZM24.1136 15.2687C23.9708 15.3487 23.7942 15.3557 23.5866 15.3557H22.2896V14.4085H23.6041C23.7942 14.4085 23.9845 14.4124 24.1136 14.4847C24.252 14.553 24.3347 14.6837 24.3347 14.864C24.3347 15.0444 24.2519 15.1898 24.1136 15.2687ZM33.751 15.5374C33.959 15.7404 34.0703 15.9968 34.0703 16.4308C34.0703 17.338 33.47 17.7615 32.3932 17.7615H30.3139V16.8572H32.3849C32.5874 16.8572 32.731 16.832 32.8209 16.7528C32.8944 16.6876 32.947 16.5928 32.947 16.4778C32.947 16.3549 32.89 16.2574 32.8167 16.1989C32.7351 16.1346 32.6225 16.1053 32.4366 16.1053C31.4382 16.0732 30.1879 16.1346 30.1879 14.8001C30.1879 14.1884 30.5949 13.5445 31.7142 13.5445H33.8545V14.4421H31.8962C31.7021 14.4421 31.5758 14.4491 31.4685 14.5183C31.3515 14.5866 31.3082 14.6879 31.3082 14.8216C31.3082 14.9807 31.4074 15.089 31.5418 15.1358C31.6544 15.1728 31.7754 15.1836 31.9572 15.1836L32.5319 15.1983C33.1114 15.2115 33.5092 15.3062 33.751 15.5374ZM37.9873 14.4084H36.0416C35.8474 14.4084 35.7182 14.4153 35.6096 14.4846C35.4969 14.5529 35.4536 14.6542 35.4536 14.7881C35.4536 14.9471 35.5486 15.0553 35.687 15.1022C35.7996 15.1392 35.9206 15.15 36.0984 15.15L36.677 15.1646C37.2608 15.1782 37.6505 15.273 37.8882 15.504C37.9316 15.5362 37.9574 15.5723 37.9872 15.6084V14.4084H37.9873Z" fill="white"/>
</g>
<defs>
<clipPath id="clip0">
<rect width="38" height="24" fill="white"/>
</clipPath>
</defs>
</svg>
