<svg width="31" height="20" viewBox="0 0 31 20" fill="none" xmlns="http://www.w3.org/2000/svg">
<path d="M19.6551 2.03906H11.2881V17.0334H19.6551V2.03906Z" fill="#FF5F00"/>
<path d="M11.8193 9.53896C11.8161 6.61241 13.163 3.84743 15.4715 2.04048C11.3194 -1.21345 5.30783 -0.494854 2.04442 3.6456C-1.219 7.78605 -0.498102 13.7806 3.65408 17.0348C7.12176 19.7523 12.0036 19.7523 15.4713 17.0348C13.1638 15.2286 11.8171 12.4644 11.8193 9.53896Z" fill="#EB001B"/>
<path d="M30.9441 9.53809C30.9441 14.8042 26.6625 19.0734 21.3815 19.0731C19.2379 19.0731 17.1568 18.3548 15.4717 17.0339C19.6239 13.78 20.3448 7.78544 17.0813 3.64473C16.6107 3.04771 16.0704 2.5087 15.4717 2.03962C19.6233 -1.21511 25.6351 -0.497573 28.8991 3.64235C30.224 5.32268 30.9441 7.39794 30.9441 9.53544V9.53809Z" fill="#F79E1B"/>
<path d="M30.0301 15.445V15.1378H30.155V15.0742H29.8389V15.1378H29.9743V15.445H30.0301ZM30.6437 15.445V15.0742H30.5481L30.4365 15.3391L30.3249 15.0742H30.24V15.445H30.309V15.1669L30.4126 15.408H30.4843L30.5879 15.1669V15.4477L30.6437 15.445Z" fill="#F79E1B"/>
</svg>
