<svg width="20" height="27" viewBox="0 0 20 27" fill="none" xmlns="http://www.w3.org/2000/svg">
<g clip-path="url(#clip0)">
<path d="M10 26.756H17.3188C18.7877 26.756 20 25.5808 20 24.1569V13.773C20 12.405 18.8903 11.2858 17.492 11.1925H17.2611V11.149V7.77891C17.2675 3.90515 14.0026 0.740234 10 0.740234V3.47612C12.4503 3.47612 14.4452 5.40989 14.4452 7.78513V11.1428V11.1863L10 11.2112H5.55484V11.1428V7.78513C5.55484 5.40989 7.54971 3.47612 10 3.47612V0.740234C5.99743 0.740234 2.73252 3.90515 2.73252 7.78513V11.1552V11.2236H2.5016C1.14176 11.3169 0.0128287 12.4361 0 13.773V24.1569C0 25.5808 1.21232 26.756 2.68121 26.756H10V22.7765V22.7206H9.76908C9.45478 22.7206 9.18538 22.4718 9.18538 22.1547V18.8157C8.53111 18.511 8.07569 17.8644 8.07569 17.1182C8.07569 16.0798 8.9288 15.2528 10 15.2404C11.052 15.2404 11.9243 16.0798 11.9243 17.1182C11.9243 17.8644 11.4689 18.511 10.8146 18.8157V22.1547C10.8146 22.4594 10.5581 22.7206 10.2309 22.7206H10" fill="#EEEEEE"/>
</g>
<defs>
<clipPath id="clip0">
<rect y="0.740234" width="20" height="26.0157" fill="white"/>
</clipPath>
</defs>
</svg>
