<svg width="36" height="36" viewBox="0 0 36 36" fill="none" xmlns="http://www.w3.org/2000/svg">
<path d="M17.9996 36C27.9251 36 36 27.9251 36 18C36 8.07493 27.9251 0 17.9996 0C8.07451 0 0 8.07493 0 18C0 27.9251 8.07451 36 17.9996 36ZM7.931 30.5104C8.44588 28.0954 12.6225 24.0481 17.9996 24.0481C23.3767 24.0481 27.5541 28.0954 28.0682 30.5104C25.3112 32.7336 21.809 34.0689 17.9996 34.0689C14.1902 34.0689 10.688 32.7336 7.931 30.5104ZM17.9996 1.93113C26.8601 1.93113 34.0693 9.13953 34.0693 18C34.0693 22.2832 32.3815 26.1769 29.6401 29.0606C28.6263 26.5957 25.8395 24.0997 22.3679 22.8824C25.0108 21.3633 26.7959 18.5136 26.7959 15.2531C26.7959 10.403 22.8501 6.45726 17.9996 6.45726C13.1495 6.45726 9.20415 10.403 9.20415 15.2531C9.20415 18.5136 10.9893 21.3633 13.6317 22.8824C10.1601 24.0997 7.37289 26.5957 6.35948 29.0606C3.61846 26.1765 1.93071 22.2832 1.93071 18C1.93071 9.13953 9.13953 1.93113 17.9996 1.93113ZM17.9996 22.1174C14.2141 22.1174 11.1353 19.0382 11.1353 15.2531C11.1353 11.4676 14.2145 8.38797 17.9996 8.38797C21.7851 8.38797 24.8647 11.4676 24.8647 15.2531C24.8647 19.0382 21.7855 22.1174 17.9996 22.1174Z" fill="black"/>
</svg>
