<?xml version="1.0" encoding="utf-8"?>
<!-- Generator: Adobe Illustrator 23.0.2, SVG Export Plug-In . SVG Version: 6.00 Build 0)  -->
<svg version="1.1" id="Слой_1" xmlns="http://www.w3.org/2000/svg" xmlns:xlink="http://www.w3.org/1999/xlink" x="0px" y="0px"
	 viewBox="0 0 20 20" style="enable-background:new 0 0 20 20;" xml:space="preserve">
<style type="text/css">
	.st0{fill:#1B4693;}
	.st1{fill:#FFFFFF;}
</style>
<g>
	<circle class="st0" cx="10" cy="10" r="10"/>
</g>
<g>
	<g>
		<path class="st1" d="M10.5,13.8l4-4c0.2-0.1,0.2-0.3,0.2-0.5s-0.1-0.4-0.2-0.5L14,8.2C13.9,8.1,13.7,8,13.5,8
			c-0.2,0-0.4,0.1-0.6,0.2l-3,3l-3-3C6.9,8.1,6.7,8,6.5,8C6.2,8,6.1,8.1,5.9,8.2L5.4,8.7C5.3,8.8,5.2,9,5.2,9.2
			c0,0.2,0.1,0.4,0.2,0.5l4,4C9.6,13.9,9.8,14,10,14C10.2,14,10.4,13.9,10.5,13.8z"/>
	</g>
	<g>
	</g>
	<g>
	</g>
	<g>
	</g>
	<g>
	</g>
	<g>
	</g>
	<g>
	</g>
	<g>
	</g>
	<g>
	</g>
	<g>
	</g>
	<g>
	</g>
	<g>
	</g>
	<g>
	</g>
	<g>
	</g>
	<g>
	</g>
	<g>
	</g>
</g>
</svg>
