<?xml version="1.0" encoding="utf-8"?>
<!-- Generator: Adobe Illustrator 23.0.2, SVG Export Plug-In . SVG Version: 6.00 Build 0)  -->
<svg version="1.1" id="Слой_1" xmlns="http://www.w3.org/2000/svg" xmlns:xlink="http://www.w3.org/1999/xlink" x="0px" y="0px"
	 viewBox="0 0 30 23" style="enable-background:new 0 0 30 23;" xml:space="preserve">
<style type="text/css">
	.st0{fill:#1B4693;}
</style>
<g>
	<g>
		<path class="st0" d="M28.5,22H8.4c-0.8,0-1.5-0.7-1.5-1.5S7.6,19,8.4,19h20.1c0.8,0,1.5,0.7,1.5,1.5S29.4,22,28.5,22z"/>
		<path class="st0" d="M28.5,13H8.4c-0.8,0-1.5-0.7-1.5-1.5S7.6,10,8.4,10h20.1c0.8,0,1.5,0.7,1.5,1.5C30,12.3,29.4,13,28.5,13z"/>
		<path class="st0" d="M28.5,3H8.4C7.6,3,6.9,2.3,6.9,1.5S7.6,0,8.4,0h20.1C29.4,0,30,0.7,30,1.5S29.4,3,28.5,3z"/>
		<circle class="st0" cx="2" cy="2" r="2"/>
		<circle class="st0" cx="2" cy="11.3" r="2"/>
		<circle class="st0" cx="2" cy="20.6" r="2"/>
	</g>
	<g>
	</g>
	<g>
	</g>
	<g>
	</g>
	<g>
	</g>
	<g>
	</g>
	<g>
	</g>
	<g>
	</g>
	<g>
	</g>
	<g>
	</g>
	<g>
	</g>
	<g>
	</g>
	<g>
	</g>
	<g>
	</g>
	<g>
	</g>
	<g>
	</g>
</g>
</svg>
