<?xml version="1.0" encoding="utf-8"?>
<!-- Generator: Adobe Illustrator 23.0.2, SVG Export Plug-In . SVG Version: 6.00 Build 0)  -->
<svg version="1.1" id="Слой_1" xmlns="http://www.w3.org/2000/svg" xmlns:xlink="http://www.w3.org/1999/xlink" x="0px" y="0px"
	 viewBox="0 0 30 36" style="enable-background:new 0 0 30 36;" xml:space="preserve">
<style type="text/css">
	.st0{fill:#1B4693;}
</style>
<g>
	<g>
		<path class="st0" d="M28,4h-1v25.8c0,1.7-1.4,3.2-3.2,3.2H12.8H4v1c0,1.1,0.9,2,2,2h11h11c1.1,0,2-0.9,2-2V6C30,4.9,29.1,4,28,4z"
			/>
		<path class="st0" d="M12.2,32H23c1.1,0,2-0.9,2-2V4.1V2c0-1.1-0.9-2-2-2H12.5H9v0.7c0,0,0.3,0.1,1,0.2v4.4v1.1C9.3,8,8,9.3,6.4,9
			H5.3H0.9c-0.1,0.3-0.2,1-0.2,1H0v20c0,1.1,0.9,2,2,2h2H12.2L12.2,32z M13.4,26H6c-0.6,0-1-0.4-1-1c0-0.6,0.4-1,1-1h7.4
			c0.6,0,1,0.4,1,1C14.4,25.6,14,26,13.4,26z M20.7,21H5.9c-0.6,0-1-0.4-1-1c0-0.6,0.4-1,1-1h14.8c0.6,0,1,0.4,1,1
			C21.7,20.6,21.2,21,20.7,21z M5.9,14h14.8c0.6,0,1,0.4,1,1s-0.4,1-1,1H5.9c-0.6,0-1-0.4-1-1S5.3,14,5.9,14z"/>
		<path class="st0" d="M0.2,6.5C-0.4,7.1,0,8,0.8,8h5.5h0C7.2,8,8,7.2,8,6.3v0V0.8c0-0.5-0.4-0.9-0.9-0.9C6.9-0.1,6.7,0,6.5,0.2
			L0.2,6.5z"/>
	</g>
	<g>
	</g>
	<g>
	</g>
	<g>
	</g>
	<g>
	</g>
	<g>
	</g>
	<g>
	</g>
	<g>
	</g>
	<g>
	</g>
	<g>
	</g>
	<g>
	</g>
	<g>
	</g>
	<g>
	</g>
	<g>
	</g>
	<g>
	</g>
	<g>
	</g>
</g>
</svg>
