<?xml version="1.0" encoding="utf-8"?>
<!-- Generator: Adobe Illustrator 23.0.2, SVG Export Plug-In . SVG Version: 6.00 Build 0)  -->
<svg version="1.1" id="Слой_1" xmlns="http://www.w3.org/2000/svg" xmlns:xlink="http://www.w3.org/1999/xlink" x="0px" y="0px"
	 viewBox="0 0 30 34" style="enable-background:new 0 0 30 34;" xml:space="preserve">
<style type="text/css">
	.st0{fill:#1B4693;}
</style>
<g>
	<path class="st0" d="M18,12.5l0,2.5h6v-2.6c1.9-1.1,3.1-3.2,3.1-5.5c0-1.3-0.4-2.6-1.2-3.6c-0.7-1-1.8-1.8-2.9-2.3l-1-0.5v4.2
		l-1,0.6l-1-0.6V0.5l-0.6,0.3c-2.3,1-4,3-4.3,5.5c0,0.2,0,0.5,0,0.7C15.1,9.3,16.2,11.4,18,12.5z"/>
	<path class="st0" d="M29.9,19.8c0-1.4-1.1-2.6-2.5-2.8H16v-3h-2.5L8,18v14.5l2.9,1.5H25v-0.1c1.3-0.3,2.3-1.4,2.3-2.8
		c0-0.5-0.1-1-0.4-1.4c0.8-0.5,1.3-1.4,1.3-2.4c0-0.5-0.1-1-0.4-1.4c0.7-0.5,1.2-1.4,1.2-2.3c0-0.5-0.1-1-0.4-1.4
		C29.4,21.6,29.9,20.8,29.9,19.8z"/>
	<path class="st0" d="M0,16h6v18H0V16z"/>
</g>
</svg>
