<?xml version="1.0" encoding="utf-8"?>
<!-- Generator: Adobe Illustrator 23.0.2, SVG Export Plug-In . SVG Version: 6.00 Build 0)  -->
<svg version="1.1" id="Слой_1" xmlns="http://www.w3.org/2000/svg" xmlns:xlink="http://www.w3.org/1999/xlink" x="0px" y="0px"
	 viewBox="0 0 30 29" style="enable-background:new 0 0 30 29;" xml:space="preserve">
<style type="text/css">
	.st0{fill:#1B4693;}
</style>
<g>
	<g>
		<g>
			<g>
				<path class="st0" d="M25.9,11.1l-0.5-1.2c1.7-4,1.6-4.1,1.3-4.5l-2.2-2.2L24.2,3h-0.3c-0.1,0-0.5,0-3.9,1.6l-1.3-0.5
					C17.1,0,17,0,16.5,0h-3.2c-0.5,0-0.7,0-2.2,4.1L10,4.6c-2.3-1-3.6-1.5-4-1.5l-0.3,0L3.2,5.5C2.9,5.8,2.7,6,4.6,9.9l-0.5,1.2
					C0,12.7,0,12.9,0,13.3v2.4c0,0.5,0,0.7,4.1,2.1l0.5,1.2c-1.7,4-1.6,4.1-1.3,4.5l2.2,2.2L5.8,26H6c0.1,0,0.5,0,3.9-1.6l1.3,0.5
					c1.6,4,1.8,4,2.3,4h3.2c0.5,0,0.7,0,2.2-4.1l1.3-0.5c2.3,1,3.6,1.5,4,1.5l0.3,0l2.4-2.4c0.3-0.3,0.5-0.5-1.4-4.4l0.5-1.2
					c4.1-1.6,4.1-1.8,4.1-2.2v-2.4C30,12.7,30,12.6,25.9,11.1z M15,19.8c-2.9,0-5.2-2.3-5.2-5.1s2.4-5.1,5.2-5.1s5.2,2.3,5.2,5.1
					C20.2,17.5,17.9,19.8,15,19.8z"/>
			</g>
		</g>
	</g>
</g>
</svg>
