<svg width="64" height="64" viewBox="0 0 64 64" fill="none" xmlns="http://www.w3.org/2000/svg">
<path d="M64 26.5C64 22.3643 60.6357 19 56.5 19H53.2329C52.7324 17.9463 52.208 16.9126 51.6582 15.9072C49.0732 11.1782 46.1729 7.39941 43.0371 4.67627C39.4653 1.57324 35.752 0 32 0C27.4888 0 22.896 2.37012 18.7188 6.854C18.2485 7.35938 18.2764 8.15039 18.7812 8.62061C19.2866 9.09131 20.0776 9.06348 20.5479 8.55811C24.293 4.53809 28.146 2.5 32 2.5C35.1318 2.5 38.2939 3.86719 41.3979 6.56348C44.2676 9.05566 47.0571 12.7017 49.4648 17.1064C50.103 18.2739 50.7065 19.48 51.2759 20.7119C51.2935 20.7563 51.3125 20.7998 51.335 20.8413C52.2183 22.7646 53.0127 24.7524 53.7085 26.7651C53.729 26.8599 53.7612 26.9502 53.8018 27.0356C54.4624 28.9741 55.0312 30.9336 55.498 32.8789C55.5098 32.9858 55.5342 33.0884 55.5708 33.1851C56.4951 37.1245 57 40.9956 57 44.5005C57 51.856 54.7729 56.4258 49.9907 58.8818C45.2861 61.2979 38.5234 61.5 32 61.5C25.4771 61.5 18.7144 61.2979 14.0098 58.8818C9.22754 56.4258 7 51.856 7 44.5005C7 40.9956 7.51123 37.1055 8.44482 33.144C8.47021 33.0693 8.48828 32.9917 8.49902 32.9116C8.97119 30.9424 9.54883 28.9565 10.2192 26.9927C10.2427 26.9375 10.2617 26.8804 10.2773 26.8218C10.9858 24.7637 11.7974 22.731 12.7002 20.7681C12.7056 20.7563 12.7119 20.7446 12.7168 20.7324C13.2202 19.6406 13.751 18.5703 14.3081 17.5298C14.6343 16.9209 14.4053 16.1636 13.7964 15.8379C13.188 15.5117 12.4302 15.7412 12.1045 16.3496C11.6411 17.2144 11.1963 18.0996 10.769 19H7.5C3.36426 19 0 22.3643 0 26.5C0 28.4463 0.748535 30.2935 2.10791 31.7017C3.11279 32.7427 4.36963 33.4585 5.7417 33.7896C4.93701 37.5234 4.5 41.1753 4.5 44.5005C4.5 52.7827 7.23682 58.2144 12.8672 61.106C18.0679 63.7769 25.1709 64 32 64C38.8291 64 45.9321 63.7764 51.1323 61.106C56.7627 58.2144 59.5 52.7827 59.5 44.5005C59.5 41.1641 59.0659 37.5151 58.2642 33.7881C59.6338 33.4565 60.8882 32.7412 61.8921 31.7017C63.2515 30.2935 64 28.4463 64 26.5ZM2.5 26.5C2.5 23.7432 4.74316 21.5 7.5 21.5H9.64551C9.12256 22.7319 8.63525 23.9854 8.18359 25.25H7C6.30957 25.25 5.75 25.8096 5.75 26.5C5.75 27.1904 6.30957 27.75 7 27.75H7.34277C6.96533 28.9492 6.62207 30.1528 6.31445 31.354C4.13867 30.811 2.5 28.8125 2.5 26.5ZM57.6904 31.3525C57.3833 30.1519 57.0396 28.9487 56.6621 27.75H57C57.6904 27.75 58.25 27.1904 58.25 26.5C58.25 25.8096 57.6904 25.25 57 25.25H55.8218C55.3701 23.9854 54.8809 22.7324 54.3569 21.5H56.5C59.2573 21.5 61.5 23.7432 61.5 26.5C61.5 28.8105 59.8638 30.8081 57.6904 31.3525Z" fill="black"/>
<path d="M26.0312 31.5796V31.5786C26.0312 30.8887 25.4717 30.3291 24.7812 30.3291C24.0908 30.3291 23.5312 30.8892 23.5312 31.5796C23.5312 32.27 24.0908 32.8296 24.7812 32.8296C25.4717 32.8296 26.0312 32.27 26.0312 31.5796Z" fill="black"/>
<path d="M39.2188 30.3291C38.5283 30.3291 37.9688 30.8892 37.9688 31.5796C37.9688 32.27 38.5283 32.8296 39.2188 32.8296C39.9092 32.8296 40.4688 32.27 40.4688 31.5796V31.5786C40.4688 30.8887 39.9092 30.3291 39.2188 30.3291Z" fill="black"/>
<path d="M28.3203 35.0635C26.3911 35.0635 24.8223 36.6328 24.8223 38.5615C24.8223 39.4956 25.186 40.374 25.8467 41.0347C26.0903 41.2788 26.4106 41.4009 26.7305 41.4009C27.0503 41.4009 27.3701 41.2788 27.6143 41.0352C28.1025 40.5469 28.1025 39.7554 27.6143 39.2671C27.4287 39.0811 27.3223 38.8242 27.3223 38.5615C27.3223 38.0112 27.77 37.5635 28.3203 37.5635C28.5869 37.5635 28.8374 37.667 29.0259 37.8555C29.5142 38.3438 30.3057 38.3438 30.7935 37.8555C31.2817 37.3672 31.2817 36.5762 30.7935 36.0879C30.1328 35.4272 29.2544 35.0635 28.3203 35.0635Z" fill="black"/>
<path d="M35.6802 35.0635C34.7456 35.0635 33.8672 35.4272 33.2065 36.0879C32.7183 36.5762 32.7183 37.3677 33.2065 37.856C33.6948 38.3442 34.4863 38.3438 34.9746 37.856C35.1626 37.6675 35.4136 37.5635 35.6802 37.5635C36.2305 37.5635 36.6782 38.0112 36.6782 38.5615C36.6782 38.8281 36.5742 39.0786 36.3857 39.2671C35.8975 39.7554 35.8975 40.5469 36.3857 41.0352C36.6299 41.2793 36.9497 41.4014 37.2695 41.4014C37.5894 41.4014 37.9097 41.2793 38.1533 41.0352C38.8145 40.3745 39.1782 39.4961 39.1782 38.5615C39.1782 36.6328 37.6089 35.0635 35.6802 35.0635Z" fill="black"/>
<path d="M15.4297 13.1599C15.6426 13.302 15.8833 13.3698 16.1216 13.3698C16.5254 13.3698 16.9219 13.1745 17.1631 12.8132L17.1636 12.8127C17.5464 12.238 17.3911 11.4626 16.8164 11.0798C16.2422 10.6965 15.4658 10.8523 15.083 11.4265C14.6997 12.0007 14.855 12.7771 15.4297 13.1599Z" fill="black"/>
<path d="M39.4375 17.4644C36.6963 17.4644 34.0493 18.4683 32 20.2539C29.9507 18.4683 27.3037 17.4644 24.5625 17.4644C18.3247 17.4644 13.25 22.5391 13.25 28.7769C13.25 31.2803 14.0713 33.6865 15.5806 35.6543C14.0527 37.9751 13.25 40.5864 13.25 43.2632C13.25 47.5122 15.2314 51.4917 18.8286 54.4697C22.3574 57.3911 27.0352 59 32 59C34.4736 59 36.8784 58.6021 39.1484 57.8169C39.8008 57.5913 40.147 56.8799 39.9214 56.2271C39.6958 55.5747 38.9839 55.229 38.3315 55.4541C36.3252 56.1479 34.1948 56.5 32 56.5C25.0352 56.5 19.0806 52.9116 16.7734 47.8862C21.7695 46.7847 26.8843 46.2251 32 46.2251C37.1157 46.2251 42.231 46.7847 47.2271 47.8862C47.0361 48.3003 46.8198 48.7095 46.5762 49.1108C46.2178 49.7012 46.4058 50.4697 46.9956 50.8281C47.5854 51.1865 48.3545 50.9985 48.7129 50.4087C50.0645 48.1831 50.75 45.7788 50.75 43.2632C50.75 40.5859 49.9473 37.9746 48.4199 35.6538C49.9292 33.686 50.75 31.2803 50.75 28.7769C50.75 22.5391 45.6753 17.4644 39.4375 17.4644ZM32 43.7251C26.6177 43.7251 21.2354 44.3228 15.9834 45.5C15.8306 44.7729 15.75 44.0259 15.75 43.2632C15.75 40.8149 16.5811 38.4219 18.1538 36.3423C18.5181 35.8604 18.4858 35.1865 18.0767 34.7417C16.5762 33.1118 15.75 30.9932 15.75 28.7769C15.75 23.9175 19.7031 19.9644 24.5625 19.9644C27.0352 19.9644 29.4092 21.0132 31.0762 22.8418C31.313 23.1016 31.6484 23.2495 32 23.2495C32.3516 23.2495 32.687 23.1016 32.9238 22.8418C34.5908 21.0132 36.9653 19.9644 39.4375 19.9644C44.2969 19.9644 48.25 23.9175 48.25 28.7769C48.25 30.9932 47.4238 33.1113 45.9238 34.7417C45.5151 35.1865 45.4824 35.8599 45.8467 36.3423C47.4189 38.4209 48.25 40.8145 48.25 43.2632C48.25 44.0215 48.1724 44.7681 48.0195 45.5005C42.7661 44.3228 37.3838 43.7251 32 43.7251Z" fill="black"/>
<path d="M43.0903 52.9336C42.5161 53.3164 42.3608 54.0928 42.7441 54.667C42.9849 55.0284 43.3813 55.2237 43.7852 55.2237C44.0234 55.2237 44.2642 55.1558 44.4775 55.0137L44.478 55.0132C45.0527 54.6304 45.2075 53.8545 44.8247 53.2798C44.4414 52.7056 43.6645 52.5508 43.0903 52.9336Z" fill="black"/>
<path d="M38.0957 26.8774C38.7861 26.8774 39.3457 26.3179 39.3457 25.6274C39.3457 24.937 38.7861 24.3774 38.0957 24.3774C36.917 24.3774 35.793 24.7544 34.7056 25.1191C33.7388 25.4434 32.8252 25.7495 32 25.7495C31.1777 25.7495 30.27 25.4443 29.3086 25.1216C28.2202 24.7559 27.0942 24.3774 25.9048 24.3774C25.2144 24.3774 24.6548 24.937 24.6548 25.6274C24.6548 26.3179 25.2144 26.8774 25.9048 26.8774C26.6855 26.8774 27.5728 27.1758 28.5122 27.4912C29.6216 27.8643 30.769 28.2495 32 28.2495C33.2334 28.2495 34.3857 27.8633 35.5005 27.4893C36.439 27.1743 37.3252 26.8774 38.0957 26.8774Z" fill="black"/>
</svg>
