<svg width="18" height="32" viewBox="0 0 18 32" fill="none" xmlns="http://www.w3.org/2000/svg">
<path d="M17.3928 14.8128C16.8483 13.2391 15.6936 11.965 14.1417 11.2251C14.1035 11.2069 14.0644 11.1907 14.0246 11.1764L9.38532 9.51787C9.36082 9.50912 9.33607 9.50113 9.31113 9.49394C9.28813 9.48731 9.26151 9.47944 9.23226 9.47062C8.94094 9.341 8.64438 9.23494 8.34494 9.15169C7.15351 8.65606 5.40201 7.64319 5.40201 5.9725C5.40201 4.05775 7.00013 2.5 8.96451 2.5H9.62076C11.671 2.5 13.277 4.03744 13.277 6C13.277 6.69037 13.8366 7.25 14.527 7.25C15.2174 7.25 15.777 6.69037 15.777 6C15.777 4.37519 15.1307 2.85794 13.9571 1.72763C12.8006 0.6135 11.2606 0 9.62088 0H8.96463C5.62176 0 2.90213 2.67925 2.90213 5.9725C2.90213 7.22162 3.3685 8.38131 4.26019 9.37113C2.84963 9.92806 1.636 10.9808 0.920127 12.4268C0.187189 13.9073 0.0760637 15.5681 0.607252 17.1032C1.15175 18.6769 2.30638 19.951 3.85832 20.6909C3.89819 20.7099 3.939 20.7268 3.98063 20.7414L8.92413 22.4841C8.94688 22.4921 8.96988 22.4994 8.99307 22.5062C9.64582 22.6946 12.9022 23.7497 12.9022 26.0276C12.9022 27.9424 11.3041 29.5001 9.33969 29.5001H8.68344C6.63319 29.5001 5.02719 27.9628 5.02719 26.0001C5.02719 25.3098 4.46757 24.7501 3.77719 24.7501C3.08682 24.7501 2.52719 25.3098 2.52719 26.0001C2.52719 27.6249 3.1735 29.1422 4.34707 30.2725C5.50369 31.3865 7.04369 32 8.68338 32H9.33963C12.6825 32 15.4021 29.3208 15.4021 26.0275C15.4021 24.483 14.6894 23.0752 13.3409 21.9562C12.3988 21.1745 11.1147 20.5212 9.72188 20.1144L4.87832 18.407C3.96382 17.9544 3.28719 17.2031 2.96975 16.2857C2.65925 15.3882 2.727 14.4117 3.16057 13.5359C3.96357 11.9139 5.80726 11.1129 7.53063 11.5234C7.79807 11.6299 8.07232 11.7274 8.35163 11.8153C8.43594 11.8518 8.52207 11.8783 8.60901 11.8953L13.1193 13.5077C14.0351 13.9602 14.7125 14.7121 15.0302 15.6302C15.3407 16.5277 15.2729 17.5042 14.8394 18.38C14.5331 18.9987 14.7863 19.7485 15.405 20.0549C15.5833 20.1431 15.7723 20.1849 15.9586 20.1849C16.4189 20.1849 16.8618 19.9296 17.0798 19.4893C17.8129 18.0088 17.924 16.3479 17.3928 14.8128Z" fill="#E53935"/>
</svg>
