<svg width="305" height="25" viewBox="0 0 305 25" fill="none" xmlns="http://www.w3.org/2000/svg">
<path d="M13.064 15.784V19H0.8V1.96H13.064V5.176H4.304V8.752H12.704V11.968H4.304V15.784H13.064ZM17.8818 19H14.2098L20.6178 1.96H24.3138L30.7218 19H26.9538L25.9218 16.072H18.9138L17.8818 19ZM22.4418 6.28H22.3938L20.0418 12.928H24.7938L22.4418 6.28ZM31.1982 14.176L34.5823 13.48C34.6623 14.296 34.9743 14.96 35.5183 15.472C36.0783 15.968 36.8783 16.216 37.9183 16.216C38.8623 16.216 39.5983 16.048 40.1263 15.712C40.6543 15.36 40.9183 14.872 40.9183 14.248C40.9183 13.736 40.6943 13.32 40.2463 13C39.7983 12.68 39.2383 12.456 38.5663 12.328C37.9103 12.2 37.1903 12.024 36.4062 11.8C35.6223 11.56 34.8943 11.296 34.2223 11.008C33.5663 10.704 33.0143 10.2 32.5663 9.496C32.1183 8.776 31.8943 7.896 31.8943 6.856C31.8943 5.368 32.4543 4.12 33.5742 3.112C34.6943 2.104 36.2063 1.6 38.1103 1.6C39.9023 1.6 41.3503 2.08 42.4543 3.04C43.5583 3.984 44.2063 5.192 44.3983 6.664L41.0143 7.288C40.9823 6.52 40.7023 5.904 40.1743 5.44C39.6623 4.96 38.9583 4.72 38.0623 4.72C37.2463 4.72 36.5903 4.904 36.0943 5.272C35.5983 5.624 35.3503 6.08 35.3503 6.64C35.3503 7.104 35.5183 7.48 35.8543 7.768C36.1903 8.056 36.6223 8.28 37.1503 8.44C37.6943 8.6 38.2863 8.752 38.9263 8.896C39.5823 9.024 40.2303 9.2 40.8703 9.424C41.5263 9.648 42.1183 9.936 42.6463 10.288C43.1903 10.624 43.6303 11.12 43.9662 11.776C44.3023 12.432 44.4703 13.216 44.4703 14.128C44.4703 15.664 43.8463 16.92 42.5983 17.896C41.3663 18.856 39.7423 19.336 37.7263 19.336C35.6783 19.336 34.1183 18.848 33.0463 17.872C31.9903 16.88 31.3743 15.648 31.1982 14.176ZM55.9883 19H53.7383V1.9375H55.9883V19ZM61.8242 6.32031L61.8945 7.91406C62.8633 6.69531 64.1289 6.08594 65.6914 6.08594C68.3711 6.08594 69.7227 7.59766 69.7461 10.6211V19H67.5781V10.6094C67.5703 9.69531 67.3594 9.01953 66.9453 8.58203C66.5391 8.14453 65.9023 7.92578 65.0352 7.92578C64.332 7.92578 63.7148 8.11328 63.1836 8.48828C62.6523 8.86328 62.2383 9.35547 61.9414 9.96484V19H59.7734V6.32031H61.8242ZM74.082 19V7.99609H72.0781V6.32031H74.082V5.01953C74.082 3.66016 74.4453 2.60938 75.1719 1.86719C75.8984 1.125 76.9258 0.753906 78.2539 0.753906C78.7539 0.753906 79.25 0.820312 79.7422 0.953125L79.625 2.71094C79.2578 2.64062 78.8672 2.60547 78.4531 2.60547C77.75 2.60547 77.207 2.8125 76.8242 3.22656C76.4414 3.63281 76.25 4.21875 76.25 4.98438V6.32031H78.957V7.99609H76.25V19H74.082ZM80.7852 12.543C80.7852 11.3008 81.0273 10.1836 81.5117 9.19141C82.0039 8.19922 82.6836 7.43359 83.5508 6.89453C84.4258 6.35547 85.4219 6.08594 86.5391 6.08594C88.2656 6.08594 89.6602 6.68359 90.7227 7.87891C91.793 9.07422 92.3281 10.6641 92.3281 12.6484V12.8008C92.3281 14.0352 92.0898 15.1445 91.6133 16.1289C91.1445 17.1055 90.4688 17.8672 89.5859 18.4141C88.7109 18.9609 87.7031 19.2344 86.5625 19.2344C84.8438 19.2344 83.4492 18.6367 82.3789 17.4414C81.3164 16.2461 80.7852 14.6641 80.7852 12.6953V12.543ZM82.9648 12.8008C82.9648 14.207 83.2891 15.3359 83.9375 16.1875C84.5938 17.0391 85.4688 17.4648 86.5625 17.4648C87.6641 17.4648 88.5391 17.0352 89.1875 16.1758C89.8359 15.3086 90.1602 14.0977 90.1602 12.543C90.1602 11.1523 89.8281 10.0273 89.1641 9.16797C88.5078 8.30078 87.6328 7.86719 86.5391 7.86719C85.4688 7.86719 84.6055 8.29297 83.9492 9.14453C83.293 9.99609 82.9648 11.2148 82.9648 12.8008ZM101.176 8.26562C100.848 8.21094 100.492 8.18359 100.109 8.18359C98.6875 8.18359 97.7227 8.78906 97.2148 10V19H95.0469V6.32031H97.1562L97.1914 7.78516C97.9023 6.65234 98.9102 6.08594 100.215 6.08594C100.637 6.08594 100.957 6.14062 101.176 6.25V8.26562ZM105.219 6.32031L105.277 7.72656C106.207 6.63281 107.461 6.08594 109.039 6.08594C110.812 6.08594 112.02 6.76562 112.66 8.125C113.082 7.51562 113.629 7.02344 114.301 6.64844C114.98 6.27344 115.781 6.08594 116.703 6.08594C119.484 6.08594 120.898 7.55859 120.945 10.5039V19H118.777V10.6328C118.777 9.72656 118.57 9.05078 118.156 8.60547C117.742 8.15234 117.047 7.92578 116.07 7.92578C115.266 7.92578 114.598 8.16797 114.066 8.65234C113.535 9.12891 113.227 9.77344 113.141 10.5859V19H110.961V10.6914C110.961 8.84766 110.059 7.92578 108.254 7.92578C106.832 7.92578 105.859 8.53125 105.336 9.74219V19H103.168V6.32031H105.219ZM132.055 19C131.93 18.75 131.828 18.3047 131.75 17.6641C130.742 18.7109 129.539 19.2344 128.141 19.2344C126.891 19.2344 125.863 18.8828 125.059 18.1797C124.262 17.4688 123.863 16.5703 123.863 15.4844C123.863 14.1641 124.363 13.1406 125.363 12.4141C126.371 11.6797 127.785 11.3125 129.605 11.3125H131.715V10.3164C131.715 9.55859 131.488 8.95703 131.035 8.51172C130.582 8.05859 129.914 7.83203 129.031 7.83203C128.258 7.83203 127.609 8.02734 127.086 8.41797C126.562 8.80859 126.301 9.28125 126.301 9.83594H124.121C124.121 9.20312 124.344 8.59375 124.789 8.00781C125.242 7.41406 125.852 6.94531 126.617 6.60156C127.391 6.25781 128.238 6.08594 129.16 6.08594C130.621 6.08594 131.766 6.45312 132.594 7.1875C133.422 7.91406 133.852 8.91797 133.883 10.1992V16.0352C133.883 17.1992 134.031 18.125 134.328 18.8125V19H132.055ZM128.457 17.3477C129.137 17.3477 129.781 17.1719 130.391 16.8203C131 16.4688 131.441 16.0117 131.715 15.4492V12.8477H130.016C127.359 12.8477 126.031 13.625 126.031 15.1797C126.031 15.8594 126.258 16.3906 126.711 16.7734C127.164 17.1562 127.746 17.3477 128.457 17.3477ZM140.223 3.25V6.32031H142.59V7.99609H140.223V15.8594C140.223 16.3672 140.328 16.75 140.539 17.0078C140.75 17.2578 141.109 17.3828 141.617 17.3828C141.867 17.3828 142.211 17.3359 142.648 17.2422V19C142.078 19.1562 141.523 19.2344 140.984 19.2344C140.016 19.2344 139.285 18.9414 138.793 18.3555C138.301 17.7695 138.055 16.9375 138.055 15.8594V7.99609H135.746V6.32031H138.055V3.25H140.223ZM147.488 19H145.32V6.32031H147.488V19ZM145.145 2.95703C145.145 2.60547 145.25 2.30859 145.461 2.06641C145.68 1.82422 146 1.70312 146.422 1.70312C146.844 1.70312 147.164 1.82422 147.383 2.06641C147.602 2.30859 147.711 2.60547 147.711 2.95703C147.711 3.30859 147.602 3.60156 147.383 3.83594C147.164 4.07031 146.844 4.1875 146.422 4.1875C146 4.1875 145.68 4.07031 145.461 3.83594C145.25 3.60156 145.145 3.30859 145.145 2.95703ZM150.395 12.543C150.395 11.3008 150.637 10.1836 151.121 9.19141C151.613 8.19922 152.293 7.43359 153.16 6.89453C154.035 6.35547 155.031 6.08594 156.148 6.08594C157.875 6.08594 159.27 6.68359 160.332 7.87891C161.402 9.07422 161.938 10.6641 161.938 12.6484V12.8008C161.938 14.0352 161.699 15.1445 161.223 16.1289C160.754 17.1055 160.078 17.8672 159.195 18.4141C158.32 18.9609 157.312 19.2344 156.172 19.2344C154.453 19.2344 153.059 18.6367 151.988 17.4414C150.926 16.2461 150.395 14.6641 150.395 12.6953V12.543ZM152.574 12.8008C152.574 14.207 152.898 15.3359 153.547 16.1875C154.203 17.0391 155.078 17.4648 156.172 17.4648C157.273 17.4648 158.148 17.0352 158.797 16.1758C159.445 15.3086 159.77 14.0977 159.77 12.543C159.77 11.1523 159.438 10.0273 158.773 9.16797C158.117 8.30078 157.242 7.86719 156.148 7.86719C155.078 7.86719 154.215 8.29297 153.559 9.14453C152.902 9.99609 152.574 11.2148 152.574 12.8008ZM166.707 6.32031L166.777 7.91406C167.746 6.69531 169.012 6.08594 170.574 6.08594C173.254 6.08594 174.605 7.59766 174.629 10.6211V19H172.461V10.6094C172.453 9.69531 172.242 9.01953 171.828 8.58203C171.422 8.14453 170.785 7.92578 169.918 7.92578C169.215 7.92578 168.598 8.11328 168.066 8.48828C167.535 8.86328 167.121 9.35547 166.824 9.96484V19H164.656V6.32031H166.707ZM195.512 3.78906H190.027V19H187.789V3.78906H182.316V1.9375H195.512V3.78906ZM201.793 19.2344C200.074 19.2344 198.676 18.6719 197.598 17.5469C196.52 16.4141 195.98 14.9023 195.98 13.0117V12.6133C195.98 11.3555 196.219 10.2344 196.695 9.25C197.18 8.25781 197.852 7.48438 198.711 6.92969C199.578 6.36719 200.516 6.08594 201.523 6.08594C203.172 6.08594 204.453 6.62891 205.367 7.71484C206.281 8.80078 206.738 10.3555 206.738 12.3789V13.2812H198.148C198.18 14.5312 198.543 15.543 199.238 16.3164C199.941 17.082 200.832 17.4648 201.91 17.4648C202.676 17.4648 203.324 17.3086 203.855 16.9961C204.387 16.6836 204.852 16.2695 205.25 15.7539L206.574 16.7852C205.512 18.418 203.918 19.2344 201.793 19.2344ZM201.523 7.86719C200.648 7.86719 199.914 8.1875 199.32 8.82812C198.727 9.46094 198.359 10.3516 198.219 11.5H204.57V11.3359C204.508 10.2344 204.211 9.38281 203.68 8.78125C203.148 8.17188 202.43 7.86719 201.523 7.86719ZM214.344 17.4648C215.117 17.4648 215.793 17.2305 216.371 16.7617C216.949 16.293 217.27 15.707 217.332 15.0039H219.383C219.344 15.7305 219.094 16.4219 218.633 17.0781C218.172 17.7344 217.555 18.2578 216.781 18.6484C216.016 19.0391 215.203 19.2344 214.344 19.2344C212.617 19.2344 211.242 18.6602 210.219 17.5117C209.203 16.3555 208.695 14.7773 208.695 12.7773V12.4141C208.695 11.1797 208.922 10.082 209.375 9.12109C209.828 8.16016 210.477 7.41406 211.32 6.88281C212.172 6.35156 213.176 6.08594 214.332 6.08594C215.754 6.08594 216.934 6.51172 217.871 7.36328C218.816 8.21484 219.32 9.32031 219.383 10.6797H217.332C217.27 9.85938 216.957 9.1875 216.395 8.66406C215.84 8.13281 215.152 7.86719 214.332 7.86719C213.23 7.86719 212.375 8.26562 211.766 9.0625C211.164 9.85156 210.863 10.9961 210.863 12.4961V12.9062C210.863 14.3672 211.164 15.4922 211.766 16.2812C212.367 17.0703 213.227 17.4648 214.344 17.4648ZM223.988 7.85547C224.949 6.67578 226.199 6.08594 227.738 6.08594C230.418 6.08594 231.77 7.59766 231.793 10.6211V19H229.625V10.6094C229.617 9.69531 229.406 9.01953 228.992 8.58203C228.586 8.14453 227.949 7.92578 227.082 7.92578C226.379 7.92578 225.762 8.11328 225.23 8.48828C224.699 8.86328 224.285 9.35547 223.988 9.96484V19H221.82V1H223.988V7.85547ZM237.09 6.32031L237.16 7.91406C238.129 6.69531 239.395 6.08594 240.957 6.08594C243.637 6.08594 244.988 7.59766 245.012 10.6211V19H242.844V10.6094C242.836 9.69531 242.625 9.01953 242.211 8.58203C241.805 8.14453 241.168 7.92578 240.301 7.92578C239.598 7.92578 238.98 8.11328 238.449 8.48828C237.918 8.86328 237.504 9.35547 237.207 9.96484V19H235.039V6.32031H237.09ZM247.707 12.543C247.707 11.3008 247.949 10.1836 248.434 9.19141C248.926 8.19922 249.605 7.43359 250.473 6.89453C251.348 6.35547 252.344 6.08594 253.461 6.08594C255.188 6.08594 256.582 6.68359 257.645 7.87891C258.715 9.07422 259.25 10.6641 259.25 12.6484V12.8008C259.25 14.0352 259.012 15.1445 258.535 16.1289C258.066 17.1055 257.391 17.8672 256.508 18.4141C255.633 18.9609 254.625 19.2344 253.484 19.2344C251.766 19.2344 250.371 18.6367 249.301 17.4414C248.238 16.2461 247.707 14.6641 247.707 12.6953V12.543ZM249.887 12.8008C249.887 14.207 250.211 15.3359 250.859 16.1875C251.516 17.0391 252.391 17.4648 253.484 17.4648C254.586 17.4648 255.461 17.0352 256.109 16.1758C256.758 15.3086 257.082 14.0977 257.082 12.543C257.082 11.1523 256.75 10.0273 256.086 9.16797C255.43 8.30078 254.555 7.86719 253.461 7.86719C252.391 7.86719 251.527 8.29297 250.871 9.14453C250.215 9.99609 249.887 11.2148 249.887 12.8008ZM264.324 19H262.156V1H264.324V19ZM267.23 12.543C267.23 11.3008 267.473 10.1836 267.957 9.19141C268.449 8.19922 269.129 7.43359 269.996 6.89453C270.871 6.35547 271.867 6.08594 272.984 6.08594C274.711 6.08594 276.105 6.68359 277.168 7.87891C278.238 9.07422 278.773 10.6641 278.773 12.6484V12.8008C278.773 14.0352 278.535 15.1445 278.059 16.1289C277.59 17.1055 276.914 17.8672 276.031 18.4141C275.156 18.9609 274.148 19.2344 273.008 19.2344C271.289 19.2344 269.895 18.6367 268.824 17.4414C267.762 16.2461 267.23 14.6641 267.23 12.6953V12.543ZM269.41 12.8008C269.41 14.207 269.734 15.3359 270.383 16.1875C271.039 17.0391 271.914 17.4648 273.008 17.4648C274.109 17.4648 274.984 17.0352 275.633 16.1758C276.281 15.3086 276.605 14.0977 276.605 12.543C276.605 11.1523 276.273 10.0273 275.609 9.16797C274.953 8.30078 274.078 7.86719 272.984 7.86719C271.914 7.86719 271.051 8.29297 270.395 9.14453C269.738 9.99609 269.41 11.2148 269.41 12.8008ZM280.977 12.5547C280.977 10.5781 281.434 9.00781 282.348 7.84375C283.262 6.67188 284.473 6.08594 285.98 6.08594C287.527 6.08594 288.734 6.63281 289.602 7.72656L289.707 6.32031H291.688V18.6953C291.688 20.3359 291.199 21.6289 290.223 22.5742C289.254 23.5195 287.949 23.9922 286.309 23.9922C285.395 23.9922 284.5 23.7969 283.625 23.4062C282.75 23.0156 282.082 22.4805 281.621 21.8008L282.746 20.5C283.676 21.6484 284.812 22.2227 286.156 22.2227C287.211 22.2227 288.031 21.9258 288.617 21.332C289.211 20.7383 289.508 19.9023 289.508 18.8242V17.7344C288.641 18.7344 287.457 19.2344 285.957 19.2344C284.473 19.2344 283.27 18.6367 282.348 17.4414C281.434 16.2461 280.977 14.6172 280.977 12.5547ZM283.156 12.8008C283.156 14.2305 283.449 15.3555 284.035 16.1758C284.621 16.9883 285.441 17.3945 286.496 17.3945C287.863 17.3945 288.867 16.7734 289.508 15.5312V9.74219C288.844 8.53125 287.848 7.92578 286.52 7.92578C285.465 7.92578 284.641 8.33594 284.047 9.15625C283.453 9.97656 283.156 11.1914 283.156 12.8008ZM299.117 15.8242L302.07 6.32031H304.391L299.293 20.957C298.504 23.0664 297.25 24.1211 295.531 24.1211L295.121 24.0859L294.312 23.9336V22.1758L294.898 22.2227C295.633 22.2227 296.203 22.0742 296.609 21.7773C297.023 21.4805 297.363 20.9375 297.629 20.1484L298.109 18.8594L293.586 6.32031H295.953L299.117 15.8242Z" fill="#F2F2F2"/>
</svg>
