<?xml version="1.0" encoding="utf-8"?>
<!-- Generator: Adobe Illustrator 23.0.2, SVG Export Plug-In . SVG Version: 6.00 Build 0)  -->
<svg version="1.1" id="Layer_1" xmlns="http://www.w3.org/2000/svg" xmlns:xlink="http://www.w3.org/1999/xlink" x="0px" y="0px"
	 viewBox="0 0 512 328.7" style="enable-background:new 0 0 512 328.7;" xml:space="preserve">
<style type="text/css">
	.st0{fill:#1B4693;}
</style>
<g>
	<g>
		<path class="st0" d="M510.6,172.9L452.1,15c-2.1-5.7-6.4-10.3-11.9-12.9c-5.6-2.6-11.8-2.8-17.5-0.7L137.8,106.8
			c-5.7,2.1-10.3,6.4-12.9,11.9c-2.6,5.6-2.8,11.8-0.7,17.5l58.4,157.9c2.1,5.7,6.4,10.3,11.9,12.9c3.1,1.4,6.3,2.1,9.6,2.1
			c2.7,0,5.4-0.5,8-1.4L497,202.3h0C508.9,198,515,184.8,510.6,172.9z M407.1,31.7L318.7,158l-149.3-38.4L407.1,31.7z M200,275.1
			l-50.7-137l117.4,30.2L200,275.1z M224.9,278.6L290,174.3l30.6,7.9c1,0.2,1.9,0.4,2.9,0.4c3.7,0,7.2-1.8,9.4-4.9l18.1-25.9
			l117.4,36.8L224.9,278.6z M364.8,132l69.5-99.3l50.7,137L364.8,132z"/>
	</g>
</g>
<g>
	<g>
		<path class="st0" d="M133.4,297.4c-2.2-5.9-8.8-9-14.7-6.8l-43.2,16c-5.9,2.2-9,8.8-6.8,14.7c1.7,4.6,6.1,7.5,10.7,7.5
			c1.3,0,2.7-0.2,4-0.7l43.2-16C132.6,309.9,135.6,303.3,133.4,297.4z"/>
	</g>
</g>
<g>
	<g>
		<path class="st0" d="M75,191c-2.2-5.9-8.8-9-14.7-6.8l-26.6,9.9c-5.9,2.2-9,8.8-6.8,14.7c1.7,4.6,6.1,7.5,10.7,7.5
			c1.3,0,2.7-0.2,4-0.7l26.6-9.9C74.2,203.5,77.2,197,75,191z"/>
	</g>
</g>
<g>
	<g>
		<path class="st0" d="M42,277.8c-2.2-5.9-8.8-9-14.7-6.8l-19.8,7.3c-5.9,2.2-9,8.8-6.8,14.7c1.7,4.6,6.1,7.5,10.7,7.5
			c1.3,0,2.7-0.2,4-0.7l19.8-7.3C41.2,290.3,44.2,283.7,42,277.8z"/>
	</g>
</g>
</svg>
